<?xml version="1.0" standalone="no"?><!DOCTYPE svg PUBLIC "-//W3C//DTD SVG 1.1//EN" "http://www.w3.org/Graphics/SVG/1.1/DTD/svg11.dtd"><svg t="1490844343581" class="icon" style="" viewBox="0 0 1024 1024" version="1.1" xmlns="http://www.w3.org/2000/svg" p-id="4786" xmlns:xlink="http://www.w3.org/1999/xlink" width="16" height="16"><defs><style type="text/css"></style></defs><path d="M800 480l-256 0L544 224c0-17.664-14.336-32-32-32s-32 14.336-32 32l0 256L224 480c-17.664 0-32 14.336-32 32s14.336 32 32 32l256 0 0 256c0 17.696 14.336 32 32 32s32-14.304 32-32l0-256 256 0c17.696 0 32-14.336 32-32S817.696 480 800 480z" p-id="4787" fill="#2c2c2c"></path></svg>