<?xml version="1.0" standalone="no"?><!DOCTYPE svg PUBLIC "-//W3C//DTD SVG 1.1//EN" "http://www.w3.org/Graphics/SVG/1.1/DTD/svg11.dtd"><svg t="1490524626571" class="icon" style="" viewBox="0 0 1024 1024" version="1.1" xmlns="http://www.w3.org/2000/svg" p-id="5224" xmlns:xlink="http://www.w3.org/1999/xlink" width="32" height="32"><defs><style type="text/css"></style></defs><path d="M542 226.6c33.6 0 66.2 6.6 97 19.7 29.8 12.6 56.5 30.7 79.6 53.8 23 23 41.1 49.8 53.8 79.6 13.1 30.8 19.7 63.4 19.7 97v330H232v-330c0-33.6 6.6-66.2 19.7-97 12.6-29.8 30.7-56.5 53.8-79.6 23-23 49.8-41.1 79.6-53.8 30.8-13.1 63.4-19.7 97-19.7H542m0-40h-60c-159.5 0-290 130.5-290 290v370h640v-370c0-159.5-130.5-290-290-290z m370 620H112v40h800v-40z m-300 53.8h-40v40.8H452v-40.8h-40v80.8h200v-80.8zM512 122.8c31.2 0 56.9 23.9 59.7 54.3-9.9-0.9-19.8-1.4-29.7-1.4h-60c-9.9 0-19.8 0.5-29.7 1.4 2.8-30.4 28.5-54.3 59.7-54.3m0-40c-55.2 0-100 44.8-100 100 0 14.1 2.9 27.5 8.2 39.7 19.9-4.4 40.6-6.7 61.8-6.7h60c21.2 0 41.9 2.3 61.8 6.7 5.3-12.2 8.2-25.6 8.2-39.7 0-55.2-44.8-100-100-100z m310 641.1H202v40h620v-40z" fill="" p-id="5225"></path></svg>