<?xml version="1.0" standalone="no"?><!DOCTYPE svg PUBLIC "-//W3C//DTD SVG 1.1//EN" "http://www.w3.org/Graphics/SVG/1.1/DTD/svg11.dtd"><svg t="1490545012032" class="icon" style="" viewBox="0 0 1024 1024" version="1.1" xmlns="http://www.w3.org/2000/svg" p-id="22921" xmlns:xlink="http://www.w3.org/1999/xlink" width="16" height="16"><defs><style type="text/css"></style></defs><path d="M809.524231 614.628402c-13.111622 0-25.75457 1.958608-37.777395 5.399987L642.898259 396.850423l-4.903683 2.831489c22.87294-28.03552 36.639478-63.783699 36.639478-102.70515 0-89.748047-73.010851-162.759921-162.759921-162.759921S349.106026 207.227692 349.106026 296.976762c0 42.742477 16.690124 81.569784 43.733037 110.641913L263.260869 623.724571c-15.186887-5.78782-31.586392-9.096169-48.779983-9.096169-75.865875 0-137.586588 61.712527-137.586588 137.569192 0 75.874061 61.720713 137.585565 137.585565 137.585565 71.02973 0 129.653919-54.113455 136.828318-123.291001h321.393871c7.172353 69.177546 65.790402 123.291001 136.820132 123.291001 75.872015 0 137.585565-61.712527 137.585565-137.585565 0.001023-75.856665-61.711504-137.569192-137.583518-137.569192zM511.872087 185.633884c61.395302 0 111.340831 49.945529 111.340831 111.340831S573.267389 408.315546 511.872087 408.315546c-61.395302 0-111.349017-49.945529-111.349018-111.340831s49.954739-111.340831 111.349018-111.340831zM214.479863 838.365092c-47.51006 0-86.167498-38.647205-86.167499-86.167498 0-47.501874 38.656415-86.150102 86.167499-86.150102s86.159312 38.647205 86.159312 86.150102c0 47.518247-38.647205 86.167498-86.159312 86.167498z m462.706317-123.293047H346.825077c-7.05365-25.094538-21.042245-47.24707-39.787169-64.357773l126.574791-211.101929c23.240307 12.801561 49.903573 20.12127 78.259388 20.12127 33.952276 0 65.485457-10.478655 91.601254-28.330232l122.333186 211.877594c-23.187095 17.865903-40.498366 42.886763-48.620347 71.79107z m132.338051 123.293047c-47.501874 0-86.150102-38.647205-86.150103-86.167498 0-47.501874 38.647205-86.150102 86.150103-86.150102 47.51927 0 86.167498 38.647205 86.167498 86.150102-0.002047 47.518247-38.649252 86.167498-86.167498 86.167498z" fill="#2c2c2c" p-id="22922"></path></svg>