<?xml version="1.0" standalone="no"?><!DOCTYPE svg PUBLIC "-//W3C//DTD SVG 1.1//EN" "http://www.w3.org/Graphics/SVG/1.1/DTD/svg11.dtd"><svg t="1490504089182" class="icon" style="" viewBox="0 0 1024 1024" version="1.1" xmlns="http://www.w3.org/2000/svg" p-id="5432" xmlns:xlink="http://www.w3.org/1999/xlink" width="16" height="16"><defs><style type="text/css"></style></defs><path d="M476.929 510.717c-2.435-1.893-4.080-2.914-5.414-4.245-91.703-91.656-183.367-183.36-275.107-274.981-6.473-6.467-10.456-13.628-9.221-22.992 1.255-9.521 6.404-16.263 15.211-19.933 9.068-3.779 17.568-2.194 25.24 3.79 1.893 1.477 3.541 3.276 5.245 4.98 91.2 91.186 182.394 182.376 273.56 273.601 1.444 1.444 2.49 3.286 3.721 4.944 0.758 0.168 1.517 0.338 2.276 0.506 1.096-1.763 1.899-3.82 3.328-5.249 91.635-91.728 183.338-183.387 274.971-275.116 7.045-7.055 14.912-11.015 25.050-8.739 18.853 4.232 26.040 26.656 13.163 41.048-1.376 1.541-2.893 2.96-4.356 4.421-91.193 91.193-182.384 182.391-273.606 273.556-1.444 1.444-3.242 2.539-5.952 4.628 2.794 2.152 4.752 3.344 6.328 4.921 91.466 91.406 182.888 182.862 274.367 274.256 5.576 5.572 9.668 11.638 9.619 19.835-0.063 10.511-4.832 18.33-14.201 22.767-9.584 4.537-18.802 3.111-27.006-3.743-1.714-1.431-3.252-3.083-4.835-4.67-91.073-91.069-182.145-182.138-273.208-273.221-1.459-1.459-2.774-3.066-4.553-5.052-1.81 1.721-3.28 3.052-4.676 4.452-91.808 91.797-183.633 183.58-275.38 275.436-7.393 7.403-15.695 11.116-26.107 8.332-17.952-4.796-24.464-26.482-12.216-40.486 1.359-1.555 2.866-2.984 4.328-4.446 91.321-91.329 182.643-182.653 273.981-273.963 1.335-1.328 2.869-2.455 5.445-4.645v0z" p-id="5433"></path></svg>