<?xml version="1.0" standalone="no"?><!DOCTYPE svg PUBLIC "-//W3C//DTD SVG 1.1//EN" "http://www.w3.org/Graphics/SVG/1.1/DTD/svg11.dtd"><svg t="1490524487738" class="icon" style="" viewBox="0 0 1024 1024" version="1.1" xmlns="http://www.w3.org/2000/svg" p-id="2958" xmlns:xlink="http://www.w3.org/1999/xlink" width="16" height="16"><defs><style type="text/css"></style></defs><path d="M960 613.4v80h-40v-80c0-55.1-10.8-108.5-32-158.8-20.5-48.6-50-92.2-87.5-129.7s-81.1-66.9-129.7-87.5c-50.3-21.3-103.7-32-158.8-32s-108.5 10.8-158.8 32c-48.6 20.5-92.2 50-129.7 87.5S156.6 406 136 454.6c-21.3 50.3-32 103.7-32 158.8v80H64v-80c0-247.4 200.6-448 448-448s448 200.6 448 448zM492 273.6h40v-60h-40v60z m-276.9 71.2l42.4 42.4 28.3-28.3-42.4-42.4-28.3 28.3z m-103 288.6h60v-40h-60v40z m739.8-40v40h60v-40h-60zM738.2 359l28.3 28.3 42.4-42.4-28.3-28.3-42.4 42.4zM514.3 688.6c-11 0-20 9-20 20s9 20 20 20 20-9 20-20-9-20-20-20m0-40c33.1 0 60 26.9 60 60s-26.9 60-60 60-60-26.9-60-60 26.9-60 60-60z m-71.4-78.1l54.2 154.2 32.7 13.3 7.9-34.3-94.8-133.2M311.3 316.7l269.4 378.4-22.4 97.6-93-37.8-154-438.2zM792 818.6H232v40h560v-40z" fill="" p-id="2959"></path></svg>