<?xml version="1.0" standalone="no"?><!DOCTYPE svg PUBLIC "-//W3C//DTD SVG 1.1//EN" "http://www.w3.org/Graphics/SVG/1.1/DTD/svg11.dtd"><svg t="1492654055450" class="icon" style="" viewBox="0 0 1024 1024" version="1.1" xmlns="http://www.w3.org/2000/svg" p-id="9548" xmlns:xlink="http://www.w3.org/1999/xlink" width="24" height="24"><defs><style type="text/css"></style></defs><path d="M648.618667 963.413333c-2.261333 0-4.48-0.384-6.698667-1.066667-5.376-1.792-9.770667-5.632-12.330667-10.666667l-157.354667-312.96-182.229333 194.133333c-6.016 6.442667-15.317333 8.405333-23.466667 5.248-8.149333-3.242667-13.482667-11.178667-13.44-19.925333L256.341333 88.661333c0.042667-8.064 4.608-15.445333 11.861333-19.029333 7.210667-3.584 15.872-2.816 22.314667 2.133333l577.792 437.461333c6.954667 5.248 9.984 14.208 7.722667 22.613333s-9.514667 14.592-18.176 15.573333l-294.869333 33.834667c-11.050667 1.109333-22.272-7.082667-23.637333-18.773333s7.082667-22.229333 18.773333-23.637333l241.962667-27.733333L298.794667 131.541333 296.021333 764.074667l166.016-176.853333c4.778667-5.12 11.605333-7.424 18.645333-6.528 6.912 0.981333 12.885333 5.333333 16 11.562667l161.450667 321.194667 44.8-22.528-116.48-229.930667c-5.333333-10.496-1.109333-23.338667 9.429333-28.672 10.496-5.162667 23.296-1.066667 28.672 9.429333l126.165333 249.002667c2.56 5.034667 2.986667 10.922667 1.194667 16.298667-1.749333 5.376-5.589333 9.813333-10.666667 12.373333l-82.944 41.728C655.189333 962.645333 651.904 963.413333 648.618667 963.413333z" p-id="9549" fill="#2c2c2c"></path></svg>