<?xml version="1.0" standalone="no"?><!DOCTYPE svg PUBLIC "-//W3C//DTD SVG 1.1//EN" "http://www.w3.org/Graphics/SVG/1.1/DTD/svg11.dtd"><svg t="1490544748055" class="icon" style="" viewBox="0 0 1024 1024" version="1.1" xmlns="http://www.w3.org/2000/svg" p-id="18224" xmlns:xlink="http://www.w3.org/1999/xlink" width="16" height="16"><defs><style type="text/css"></style></defs><path d="M947.2 716.8c-14.0288 0-25.6 11.4688-25.6 25.6v128c0 28.16-22.9376 51.2-51.2 51.2H102.4c-28.2624 0-51.2-23.04-51.2-51.2V742.4c0-14.1312-11.5712-25.6-25.6-25.6S0 728.2688 0 742.4v128c0 56.32 46.08 102.4 102.4 102.4h768c56.32 0 102.4-46.08 102.4-102.4V742.4c0-14.1312-11.5712-25.6-25.6-25.6z" p-id="18225" fill="#2c2c2c"></path><path d="M468.0704 760.2176c0.1024 0.1024 0.1024 0.2048 0.1024 0.2048 1.9456 1.9456 4.3008 3.1744 6.5536 4.4032 0.6144 0.3072 1.024 0.8192 1.6384 1.1264 0.1024 0 0.2048 0.1024 0.3072 0.1024 9.216 3.7888 20.2752 1.8432 27.7504-5.632 0.1024-0.1024 0.1024-0.2048 0.2048-0.4096l358.1952-358.1952c9.9328-9.9328 9.9328-26.2144 0-36.1472-9.9328-10.0352-26.2144-10.0352-36.2496 0L512 680.5504V25.6c0-14.1312-11.5712-25.6-25.6-25.6s-25.6 11.4688-25.6 25.6v654.9504L146.0224 365.7728c-9.9328-9.9328-26.3168-9.9328-36.2496 0s-9.9328 26.2144 0 36.2496l358.2976 358.1952z" p-id="18226" fill="#2c2c2c"></path></svg>