<?xml version="1.0" standalone="no"?><!DOCTYPE svg PUBLIC "-//W3C//DTD SVG 1.1//EN" "http://www.w3.org/Graphics/SVG/1.1/DTD/svg11.dtd"><svg t="1490524376382" class="icon" style="" viewBox="0 0 1024 1024" version="1.1" xmlns="http://www.w3.org/2000/svg" p-id="1617" xmlns:xlink="http://www.w3.org/1999/xlink" width="16" height="16"><defs><style type="text/css"></style></defs><path d="M721.5 133.2l169.7 169.7-552.4 552.5-211.7 41.3 42-210.9 552.4-552.6m0-56.5L132.2 666l-56 281.3 282.2-55 589.4-589.4L721.5 76.7zM619 179.2l-28.3 28.3L817 433.8l28.3-28.3L619 179.2z m-52.4 52.4l-28.3 28.3 226.3 226.3 28.3-28.3-226.3-226.3zM160.2 638l-28.3 28.3 226.3 226.3 28.3-28.3L160.2 638z m452-314.1L222.6 713.5l28.3 28.3 389.6-389.6-28.3-28.3z m60.1 60.1L282.7 773.6l28.3 28.3 389.6-389.6-28.3-28.3z" fill="#2c2c2c" p-id="1618"></path></svg>