<?xml version="1.0" standalone="no"?><!DOCTYPE svg PUBLIC "-//W3C//DTD SVG 1.1//EN" "http://www.w3.org/Graphics/SVG/1.1/DTD/svg11.dtd"><svg t="1490524772344" class="icon" style="" viewBox="0 0 1024 1024" version="1.1" xmlns="http://www.w3.org/2000/svg" p-id="6913" xmlns:xlink="http://www.w3.org/1999/xlink" width="16" height="16"><defs><style type="text/css"></style></defs><path d="M532 65.1V513h-40V65.1h40z m110 53.8V161c7.3 2.6 14.6 5.4 21.8 8.5 46.4 19.6 88.1 47.8 124 83.6 35.8 35.8 64 77.5 83.6 124 20.3 48.1 30.6 99.1 30.6 151.8 0 52.7-10.3 103.7-30.6 151.8-19.6 46.4-47.8 88.1-83.6 124-35.8 35.8-77.5 64-124 83.6-48.1 20.3-99.1 30.6-151.8 30.6s-103.7-10.3-151.8-30.6c-46.4-19.6-88.1-47.8-124-83.6-35.8-35.8-64-77.5-83.6-124-20.3-48.1-30.6-99.1-30.6-151.8 0-52.7 10.3-103.7 30.6-151.8 19.6-46.4 47.8-88.1 83.6-124 35.8-35.8 77.5-64 124-83.6 7.2-3 14.5-5.9 21.8-8.5v-42.2C208.1 174 82 336.7 82 528.9c0 237.5 192.5 430 430 430s430-192.5 430-430c0-192.2-126.1-354.9-300-410z" fill="" p-id="6914"></path></svg>