<?xml version="1.0" standalone="no"?><!DOCTYPE svg PUBLIC "-//W3C//DTD SVG 1.1//EN" "http://www.w3.org/Graphics/SVG/1.1/DTD/svg11.dtd"><svg t="1490524472739" class="icon" style="" viewBox="0 0 1024 1024" version="1.1" xmlns="http://www.w3.org/2000/svg" p-id="2669" xmlns:xlink="http://www.w3.org/1999/xlink" width="16" height="16"><defs><style type="text/css"></style></defs><path d="M512 112c54 0 106.4 10.6 155.7 31.4 47.6 20.1 90.4 49 127.2 85.7 36.7 36.7 65.6 79.5 85.7 127.2C901.4 405.6 912 458 912 512s-10.6 106.4-31.4 155.7c-20.1 47.6-49 90.4-85.7 127.2-36.7 36.7-79.5 65.6-127.2 85.7C618.4 901.4 566 912 512 912s-106.4-10.6-155.7-31.4c-47.6-20.1-90.4-49-127.2-85.7-36.7-36.7-65.6-79.5-85.7-127.2C122.6 618.4 112 566 112 512s10.6-106.4 31.4-155.7c20.1-47.6 49-90.4 85.7-127.2 36.7-36.7 79.5-65.6 127.2-85.7C405.6 122.6 458 112 512 112m0-40C269 72 72 269 72 512s197 440 440 440 440-197 440-440S755 72 512 72z m165 366.5c0-91.1-73.9-165-165-165s-165 73.9-165 165v0.3h40v-0.3c0-33.4 13-64.8 36.6-88.4 23.6-23.6 55-36.6 88.4-36.6 33.4 0 64.8 13 88.4 36.6 23.6 23.6 36.6 55 36.6 88.4s-13 64.8-36.6 88.4c-23.6 23.6-55 36.6-88.4 36.6v0.1h-34v107h40v-67.2c88.3-3.2 159-75.8 159-164.9z m-199 312h40v-40h-40v40z" fill="#2c2c2c" p-id="2670"></path></svg>