<?xml version="1.0" standalone="no"?><!DOCTYPE svg PUBLIC "-//W3C//DTD SVG 1.1//EN" "http://www.w3.org/Graphics/SVG/1.1/DTD/svg11.dtd"><svg t="1490524714828" class="icon" style="" viewBox="0 0 1024 1024" version="1.1" xmlns="http://www.w3.org/2000/svg" p-id="6439" xmlns:xlink="http://www.w3.org/1999/xlink" width="16" height="16"><defs><style type="text/css"></style></defs><path d="M451.1 116.6v268.3L260.5 201c55-44.6 120.7-73.7 190.6-84.4m40-44.1c-112.7 5.3-214.3 53-289.3 127.5l289.3 279.2V72.5zM194.3 285.8l233.2 217.3L193.4 737c-18.5-26.2-33.7-54.4-45.3-84.4C130.8 607.8 122 560.5 122 512s8.8-95.8 26.1-140.6c11.8-30.5 27.2-59.1 46.2-85.6m-4.4-58.7C122.8 302.9 82 402.7 82 512c0 109.3 40.8 209.1 108 285l295.1-294.9-295.2-275z m363.4-92.9c37.1 4 73.1 13.3 107.5 28 45.1 19.2 85.6 46.6 120.4 81.5 34.8 34.9 62.1 75.5 81.2 120.7C882 411.1 892 460.8 892 512c0 51.3-10 101.1-29.8 147.9-19.1 45.2-46.5 85.9-81.5 120.8-34.9 34.9-75.6 62.3-120.8 81.5C613.1 882 563.3 892 512 892c-51.3 0-101.1-10-147.9-29.8-32.9-13.9-63.4-32.2-91-54.6l267.3-267.1 11.7-11.7 0.1-16.5 1.1-378.1M513.4 92l-1.3 420.1L215 809c76 76 181 123 297 123 232 0 420-188 420-420 0-231.5-187.3-419.2-418.6-420z" fill="" p-id="6440"></path></svg>