<?xml version="1.0" standalone="no"?><!DOCTYPE svg PUBLIC "-//W3C//DTD SVG 1.1//EN" "http://www.w3.org/Graphics/SVG/1.1/DTD/svg11.dtd"><svg t="1490524434360" class="icon" style="" viewBox="0 0 1024 1024" version="1.1" xmlns="http://www.w3.org/2000/svg" p-id="2432" xmlns:xlink="http://www.w3.org/1999/xlink" width="16" height="16"><defs><style type="text/css"></style></defs><path d="M830.6 659.2c-50.9 123.8-172.7 211-314.9 211-186.8 0-338.4-150.5-340.4-336.8l-67.8 87.4-31.6-24.5 110.3-142.2 142.2 110.3-24.5 31.6-88.7-68.8v2.6c0 40.6 7.9 79.9 23.6 116.9 15.1 35.8 36.8 67.9 64.4 95.5 27.6 27.6 59.7 49.3 95.5 64.4 37 15.7 76.3 23.6 116.9 23.6 40.6 0 79.9-7.9 116.9-23.6 35.8-15.1 67.9-36.8 95.5-64.4 24.4-24.4 44.1-52.2 58.8-83h43.8zM237.1 364.8c14.7-30.8 34.4-58.7 58.8-83 27.6-27.6 59.7-49.3 95.5-64.4 37-15.7 76.3-23.6 116.9-23.6 40.6 0 79.9 7.9 116.9 23.6 35.8 15.1 67.9 36.8 95.5 64.4 27.6 27.6 49.3 59.7 64.4 95.5 15.7 37 23.6 76.3 23.6 116.9v2.6L720.1 428l-24.5 31.6 142.2 110.3 110.3-142.2-31.6-24.5-67.8 87.4c-1.9-186.4-153.6-336.8-340.4-336.8-142.2 0-264 87.2-314.9 211h43.7z" fill="" p-id="2433"></path></svg>