<?xml version="1.0" standalone="no"?><!DOCTYPE svg PUBLIC "-//W3C//DTD SVG 1.1//EN" "http://www.w3.org/Graphics/SVG/1.1/DTD/svg11.dtd"><svg t="1490544973188" class="icon" style="" viewBox="0 0 1024 1024" version="1.1" xmlns="http://www.w3.org/2000/svg" p-id="22151" xmlns:xlink="http://www.w3.org/1999/xlink" width="16" height="16"><defs><style type="text/css"></style></defs><path d="M977.984 856 108.032 856c-17.152 0-31.04-12.8-31.04-28.672L76.992 139.328c0-15.872-13.888-28.672-31.04-28.672-17.152 0-31.04 12.8-31.04 28.672l0 716.672c0 31.616 27.84 57.344 62.08 57.344l900.992 0c17.152 0 31.04-12.8 31.04-28.672S995.2 856 977.984 856L977.984 856zM977.984 856M170.112 626.688l61.632 0c10.688 0.32 21.312-4.48 27.392-13.44l66.048-97.664 94.208 195.392c4.032 8.32 11.84 14.016 20.736 16.128 16.128 4.096 33.024-4.352 37.952-19.264l127.36-384.832 92.864 280.64c2.88 13.12 15.36 22.976 30.4 22.976l155.2 0c2.688 0 5.248-0.32 7.744-0.896 10.56 17.664 30.912 29.568 54.336 29.568 34.304 0 62.08-25.664 62.08-57.344 0-31.68-27.776-57.344-62.08-57.344-23.36 0-43.712 11.968-54.336 29.568-2.496-0.576-5.056-0.896-7.744-0.896l-132.032 0L635.2 216.896C630.208 201.792 612.864 193.216 596.48 197.888 590.784 199.488 585.92 202.496 582.272 206.336c-3.008 3.008-5.312 6.72-6.72 10.88l-132.8 401.28L358.848 444.352C357.376 440.768 355.136 437.44 352.128 434.624 352 434.496 351.808 434.368 351.68 434.24 351.488 434.048 351.36 433.92 351.168 433.728 342.336 425.984 328.96 423.424 317.12 428.352 310.4 431.104 305.216 435.84 302.144 441.472L215.616 569.344 170.112 569.344c-17.152 0-31.04 12.864-31.04 28.672C139.072 613.824 153.024 626.688 170.112 626.688L170.112 626.688zM170.112 626.688" p-id="22152"></path></svg>