<?xml version="1.0" standalone="no"?><!DOCTYPE svg PUBLIC "-//W3C//DTD SVG 1.1//EN" "http://www.w3.org/Graphics/SVG/1.1/DTD/svg11.dtd"><svg t="1490544521977" class="icon" style="" viewBox="0 0 1024 1024" version="1.1" xmlns="http://www.w3.org/2000/svg" p-id="1328" xmlns:xlink="http://www.w3.org/1999/xlink" width="16" height="16"><defs><style type="text/css"></style></defs><path d="M466 146c41.6 0 82.1 7.9 120.4 23.4 39.7 16.1 75.3 39.7 105.8 70.3 58.2 58.3 91.5 135.7 93.6 218 2.1 82-26.8 160.7-81.4 221.6l-11.9 13.3-13.3 11.9C620.7 757 544.9 786 465.9 786c-41.6 0-82.1-7.9-120.4-23.4-39.7-16.1-75.3-39.7-105.8-70.3-30.6-30.6-54.2-66.2-70.3-105.8-15.6-38.4-23.4-79-23.4-120.5 0-41.6 7.9-82.1 23.4-120.4 16.1-39.7 39.7-75.3 70.3-105.8 30.6-30.6 66.2-54.2 105.8-70.3C383.9 153.8 424.4 146 466 146m0-40c-92.1 0-184.3 35.1-254.6 105.4-140.6 140.6-140.6 368.5 0 509.1C281.7 790.8 373.8 826 465.9 826c85.9 0 171.8-30.6 240-91.7L889.8 918l28.3-28.3L734.3 706C861 564.7 856.4 347.3 720.5 211.4 650.2 141.1 558.1 106 466 106z" fill="#2c2c2c" p-id="1329"></path></svg>