<?xml version="1.0" standalone="no"?><!DOCTYPE svg PUBLIC "-//W3C//DTD SVG 1.1//EN" "http://www.w3.org/Graphics/SVG/1.1/DTD/svg11.dtd"><svg t="1490524587823" class="icon" style="" viewBox="0 0 1024 1024" version="1.1" xmlns="http://www.w3.org/2000/svg" p-id="4750" xmlns:xlink="http://www.w3.org/1999/xlink" width="32" height="32"><defs><style type="text/css"></style></defs><path d="M632 214.8v70H392v-70h240m40-40H352v150h320v-150z m0 186.3H352v40h320v-40z m0 78.6H352v40h320v-40zM512 610c-11 0-20 9-20 20s9 20 20 20 20-9 20-20-9-20-20-20z m0 72.1c-11 0-20 9-20 20s9 20 20 20 20-9 20-20-9-20-20-20z m0 115.2c5.5 0 10 4.5 10 10s-4.5 10-10 10-10-4.5-10-10 4.5-10 10-10m0-40c-27.6 0-50 22.4-50 50s22.4 50 50 50 50-22.4 50-50-22.4-50-50-50zM772 104v816H252V104h520m40-40H212v896h600V64z" fill="" p-id="4751"></path></svg>