<?xml version="1.0" standalone="no"?><!DOCTYPE svg PUBLIC "-//W3C//DTD SVG 1.1//EN" "http://www.w3.org/Graphics/SVG/1.1/DTD/svg11.dtd"><svg t="1490545172361" class="icon" style="" viewBox="0 0 1024 1024" version="1.1" xmlns="http://www.w3.org/2000/svg" p-id="27311" xmlns:xlink="http://www.w3.org/1999/xlink" width="32" height="32"><defs><style type="text/css"></style></defs><path d="M511.876507 334.664737c-97.559093 0-176.964785 79.529185-176.964785 177.335263s79.405692 177.335263 176.964785 177.335263 176.964785-79.529185 176.964785-177.335263S609.559093 334.664737 511.876507 334.664737L511.876507 334.664737 511.876507 334.664737zM511.876507 639.567776c-70.267246 0-127.444284-57.300531-127.444284-127.691269 0-70.390738 57.177038-127.691269 127.444284-127.691269 70.267246 0 127.444284 57.300531 127.444284 127.691269C639.320791 582.267246 582.143753 639.567776 511.876507 639.567776L511.876507 639.567776 511.876507 639.567776zM898.284612 381.591896l-21.240714 0-2.46985-6.668596-0.123493-0.246985c-0.246985-0.49397-0.49397-0.98794-0.617463-1.48191l0-0.123493c-3.087313-7.903521-5.927641-14.819103-8.644477-20.993729l-2.963821-6.545104 15.066088-15.066088c22.352147-22.352147 34.701399-52.237337 34.701399-83.851423 0-31.737578-12.349252-61.499276-34.701399-83.974916l-16.547998-16.547998c-22.352147-22.352147-52.113845-34.701399-83.727931-34.701399s-61.375784 12.349252-83.727931 34.701399l-15.066088 15.066088-6.545104-2.963821c-6.668596-2.963821-14.078148-6.051134-22.722624-9.385432l-6.668596-2.46985 0-21.487699c0-65.451037-53.101785-118.676315-118.429329-118.676315l-23.463579 0c-65.327545 0-118.429329 53.225277-118.429329 118.676315l0 21.487699-6.668596 2.46985c-8.644477 3.210806-16.054028 6.298119-22.722624 9.385432l-6.545104 2.963821-15.066088-15.066088c-22.352147-22.352147-52.113845-34.701399-83.727931-34.701399s-61.375784 12.349252-83.727931 34.701399L146.585625 162.639653c-22.352147 22.475639-34.701399 52.237337-34.701399 83.974916 0 31.737578 12.349252 61.499276 34.701399 83.851423l15.066088 15.066088-2.963821 6.545104c-2.840328 6.174626-5.557164 12.843222-8.644477 20.993729-0.246985 0.49397-0.49397 1.111433-0.740955 1.605403l-0.123493 0.246985-2.46985 6.545104-21.240714 0C60.140859 381.591896 7.039074 434.817173 7.039074 500.26821l0 23.463579c0 65.451037 53.101785 118.676315 118.429329 118.676315l21.364206 0 2.46985 6.668596 0.123493 0.246985c0.246985 0.49397 0.49397 0.98794 0.740955 1.605403 3.087313 7.903521 5.927641 14.819103 8.644477 20.993729l2.963821 6.545104L146.585625 693.410516c-22.352147 22.352147-34.701399 52.237337-34.701399 83.851423 0 31.737578 12.349252 61.499276 34.701399 83.974916l16.547998 16.547998c22.352147 22.352147 52.113845 34.701399 83.727931 34.701399s61.375784-12.349252 83.727931-34.701399l15.066088-15.066088 6.545104 2.963821c6.668596 3.087313 14.078148 6.051134 22.722624 9.261939l6.668596 2.46985L381.591896 899.025567c0 65.451037 53.101785 118.676315 118.429329 118.676315l23.463579 0c65.327545 0 118.429329-53.225277 118.429329-118.676315l0-21.487699 6.668596-2.46985c8.644477-3.210806 16.054028-6.298119 22.722624-9.261939l6.545104-2.963821 15.066088 15.066088c22.352147 22.352147 52.113845 34.701399 83.727931 34.701399s61.375784-12.349252 83.727931-34.701399l16.547998-16.547998c22.352147-22.475639 34.701399-52.237337 34.701399-83.974916 0-31.737578-12.349252-61.499276-34.701399-83.974916l-15.066088-15.066088 2.963821-6.545104c2.840328-6.174626 5.680656-13.090207 8.644477-20.993729 0.246985-0.49397 0.49397-1.111433 0.740955-1.605403l0.123493-0.246985 2.46985-6.668596 21.364206 0c65.327545 0 118.429329-53.225277 118.429329-118.676315l0-23.463579C1016.837434 434.817173 963.612156 381.591896 898.284612 381.591896L898.284612 381.591896 898.284612 381.591896zM967.193439 523.608297c0 4.445731-0.49397 9.014954-1.358418 13.460685-0.370478 1.728895-0.864448 3.210806-1.234925 4.445731-0.123493 0.370478-0.246985 0.740955-0.370478 1.111433l-0.246985 1.111433c-0.49397 1.852388-0.98794 3.828268-1.97588 6.051134-0.864448 2.222865-1.97588 4.198746-2.963821 5.927641l-0.617463 1.111433c-0.123493 0.246985-0.370478 0.617463-0.49397 0.98794-0.49397 0.98794-1.111433 2.099373-1.852388 3.334298-1.852388 2.963821-3.951761 5.433671-5.804149 7.656536l-0.123493 0.123493c-0.123493 0.123493-0.123493 0.246985-0.246985 0.246985-0.370478 0.49397-0.740955 0.98794-1.358418 1.728895-2.346358 2.593343-5.063193 4.939701-8.273999 7.409551-0.246985 0.246985-0.49397 0.49397-0.864448 0.617463-10.126387 7.656536-22.228654 12.22576-35.071877 13.460685-0.49397 0-0.98794 0.123493-1.48191 0.123493-1.358418 0.123493-2.963821 0.370478-4.816208 0.370478l-58.164978 0c-7.903521 32.231548-21.240714 63.845634-39.764592 94.101302l41.740473 41.863965c10.496864 10.496864 17.165461 24.081042 19.264834 39.270622 0 0.370478 0.123493 0.617463 0.123493 0.98794 0.49397 4.075253 0.740955 7.656536 0.49397 10.990835 0 0.864448-0.123493 1.728895-0.246985 2.222865 0 0.123493 0 0.370478 0 0.49397-0.246985 2.840328-0.49397 6.174626-1.234925 9.508924-0.246985 1.358418-0.617463 2.46985-0.98794 3.457791-0.123493 0.370478-0.246985 0.740955-0.370478 1.111433 0 0-0.246985 0.98794-0.370478 1.358418-0.49397 1.852388-1.111433 3.951761-2.099373 6.051134-0.864448 2.099373-1.852388 3.951761-2.840328 5.557164-0.246985 0.370478-0.370478 0.740955-0.617463 1.111433-0.246985 0.370478-0.370478 0.740955-0.617463 1.111433-0.49397 0.98794-1.111433 2.346358-2.099373 3.704776-2.593343 3.828268-5.433671 7.409551-8.520984 10.496864l-16.547998 16.547998c-3.087313 3.087313-6.668596 5.927641-10.373372 8.520984l-0.123493 0.123493c-1.358418 0.864448-2.593343 1.48191-3.581283 1.97588-0.370478 0.246985-0.864448 0.370478-1.234925 0.617463l-0.98794 0.49397c-1.605403 0.98794-3.581283 1.97588-5.680656 2.840328-2.099373 0.864448-4.075253 1.48191-5.927641 1.97588-0.49397 0.123493-0.98794 0.246985-1.358418 0.370478l-0.246985 0c-0.370478 0.123493-0.740955 0.246985-1.111433 0.370478-0.98794 0.246985-2.099373 0.617463-3.457791 0.98794-3.457791 0.740955-6.668596 1.111433-9.508924 1.234925l-0.123493 0c-0.123493 0-0.370478 0-0.49397 0-0.49397 0-1.234925 0.123493-2.099373 0.123493-0.740955 0-1.605403 0-2.346358 0-2.716836 0-5.557164-0.246985-8.891462-0.617463l-0.123493 0c-0.370478 0-0.617463 0-0.98794-0.123493-15.066088-2.099373-28.650265-8.767969-39.14713-19.264834l-41.740473-41.740473c-30.255668 18.523878-61.746261 31.861071-93.97781 39.888085L591.652677 899.025567c0 1.852388-0.246985 3.457791-0.370478 4.692716-0.123493 0.49397-0.123493 0.98794-0.123493 1.358418-1.111433 12.843222-5.804149 24.94549-13.337192 35.071877-0.123493 0.246985-0.370478 0.370478-0.49397 0.617463l-0.123493 0.246985c-2.46985 3.210806-4.939701 5.927641-7.533044 8.273999-0.740955 0.617463-1.358418 1.111433-1.728895 1.48191-0.123493 0.123493-0.246985 0.123493-0.246985 0.246985-2.222865 1.97588-4.816208 4.075253-7.656536 5.927641-1.111433 0.740955-2.222865 1.358418-3.210806 1.728895-0.370478 0.123493-0.740955 0.370478-0.98794 0.49397l-0.740955 0.370478c-1.728895 0.98794-3.828268 2.099373-6.051134 3.087313l-0.123493 0c-2.099373 0.864448-4.075253 1.358418-5.927641 1.852388l-1.234925 0.370478c-0.370478 0.123493-0.864448 0.246985-1.234925 0.370478-1.111433 0.370478-2.46985 0.864448-4.075253 1.111433-4.445731 0.864448-9.014954 1.358418-13.460685 1.358418l-23.463579 0c-4.445731 0-9.014954-0.49397-13.460685-1.358418-1.605403-0.370478-2.963821-0.740955-4.075253-1.111433-0.370478-0.123493-0.864448-0.246985-1.358418-0.370478l-1.111433-0.370478c-1.728895-0.49397-3.828268-0.98794-5.927641-1.852388l-0.123493-0.123493c-2.346358-0.98794-4.322238-2.099373-6.174626-3.087313l-0.740955-0.370478c-0.370478-0.123493-0.617463-0.370478-0.98794-0.49397-0.864448-0.49397-1.97588-0.98794-3.087313-1.728895-2.963821-1.97588-5.557164-4.075253-7.656536-5.927641-0.123493-0.123493-0.246985-0.123493-0.370478-0.246985-0.49397-0.370478-1.111433-0.864448-1.728895-1.48191-2.46985-2.346358-4.939701-5.063193-7.409551-8.273999l0-0.123493c-0.123493-0.123493-0.370478-0.49397-0.617463-0.864448-7.533044-10.126387-12.22576-22.228654-13.337192-34.948384 0-0.49397-0.123493-0.98794-0.123493-1.358418-0.123493-1.358418-0.370478-2.963821-0.370478-4.816208l0-58.164978c-32.231548-8.027014-63.722142-21.364206-93.97781-39.888085l-41.740473 41.740473c-10.496864 10.496864-24.081042 17.165461-39.14713 19.264834-0.370478 0-0.617463 0.123493-0.98794 0.123493l0 0c-3.210806 0.370478-6.174626 0.617463-8.891462 0.617463-0.740955 0-1.605403 0-2.346358 0-0.864448 0-1.48191-0.123493-2.099373-0.123493-0.123493 0-0.370478 0-0.49397 0l-0.123493 0c-2.840328-0.246985-6.051134-0.49397-9.508924-1.234925-1.358418-0.246985-2.46985-0.617463-3.457791-0.98794-0.370478-0.123493-0.740955-0.246985-1.111433-0.370478l-0.246985-0.123493c-0.49397-0.123493-0.98794-0.246985-1.48191-0.370478-1.728895-0.49397-3.704776-1.111433-5.804149-1.97588-2.099373-0.864448-4.075253-1.97588-5.680656-2.840328l-0.98794-0.617463c-0.370478-0.246985-0.864448-0.370478-1.234925-0.617463-0.98794-0.49397-2.222865-1.111433-3.704776-2.099373-3.828268-2.593343-7.286059-5.433671-10.496864-8.520984L181.657501 826.164978c-3.087313-3.087313-6.051134-6.668596-8.520984-10.496864-0.864448-1.358418-1.605403-2.593343-2.099373-3.704776-0.246985-0.370478-0.370478-0.740955-0.617463-1.234925l-0.617463-0.98794c-0.864448-1.605403-1.97588-3.457791-2.840328-5.557164-0.864448-2.099373-1.48191-4.198746-1.97588-6.051134-0.123493-0.370478-0.370478-1.48191-0.370478-1.48191-0.123493-0.370478-0.246985-0.740955-0.370478-1.111433-0.246985-0.98794-0.617463-2.099373-0.98794-3.334298-0.740955-3.334298-0.98794-6.545104-1.234925-9.632417 0-0.123493 0-0.370478 0-0.49397-0.123493-0.49397-0.123493-1.358418-0.123493-2.222865-0.123493-3.334298 0-7.039074 0.49397-10.990835 0-0.370478 0.123493-0.864448 0.123493-1.234925 2.099373-15.066088 8.767969-28.650265 19.264834-39.14713l41.740473-41.863965c-18.400386-30.255668-31.737578-61.869754-39.764592-94.101302l-58.164978 0c-1.852388 0-3.457791-0.246985-4.816208-0.370478-0.49397-0.123493-0.98794-0.123493-1.358418-0.123493-12.843222-1.111433-24.94549-5.804149-35.071877-13.460685-0.246985-0.246985-0.49397-0.370478-0.740955-0.617463-3.210806-2.46985-5.804149-4.816208-8.273999-7.409551-0.617463-0.617463-1.111433-1.234925-1.358418-1.728895 0-0.123493-0.123493-0.123493-0.123493-0.246985l-0.123493-0.123493c-1.852388-2.099373-3.951761-4.692716-5.804149-7.656536-0.740955-1.234925-1.358418-2.346358-1.852388-3.210806-0.123493-0.370478-0.370478-0.617463-0.49397-0.98794l-0.617463-0.98794c-0.98794-1.728895-1.97588-3.704776-2.963821-5.927641-0.864448-2.099373-1.48191-4.198746-1.97588-6.051134l-0.246985-1.111433c-0.123493-0.370478-0.246985-0.740955-0.370478-1.111433-0.370478-1.234925-0.864448-2.593343-1.234925-4.322238-0.864448-4.445731-1.358418-9.014954-1.358418-13.460685l0-23.463579c0-4.445731 0.49397-9.014954 1.358418-13.460685 0.370478-1.728895 0.864448-3.210806 1.234925-4.322238 0.123493-0.370478 0.246985-0.740955 0.370478-1.111433 0.123493-0.370478 0.246985-0.740955 0.370478-1.111433 0.49397-1.728895 0.98794-3.828268 1.852388-5.927641 0.864448-2.222865 1.97588-4.198746 2.963821-5.927641l0.617463-1.111433c0.123493-0.370478 0.370478-0.617463 0.49397-0.98794 0.49397-0.98794 1.111433-2.099373 1.852388-3.334298 1.852388-2.840328 3.828268-5.310178 5.804149-7.533044l0.123493-0.123493c0.123493-0.123493 0.123493-0.123493 0.246985-0.246985 0.370478-0.370478 0.740955-0.98794 1.48191-1.728895 2.46985-2.593343 5.186686-5.063193 8.273999-7.533044 0.246985-0.246985 0.49397-0.370478 0.740955-0.617463 10.126387-7.656536 22.228654-12.22576 35.071877-13.460685 0.49397 0 0.98794-0.123493 1.48191-0.123493 1.234925-0.123493 2.840328-0.370478 4.692716-0.370478l58.164978 0c8.027014-32.231548 21.240714-63.845634 39.764592-94.101302l-41.740473-41.863965c-10.496864-10.496864-17.165461-24.081042-19.264834-39.14713 0-0.370478-0.123493-0.740955-0.123493-1.234925-0.49397-4.075253-0.740955-7.656536-0.49397-10.990835 0-0.864448 0.123493-1.605403 0.123493-2.222865 0-0.123493 0-0.370478 0-0.49397 0.246985-2.963821 0.49397-6.298119 1.234925-9.508924 0.246985-1.358418 0.617463-2.46985 0.98794-3.457791 0.123493-0.370478 0.246985-0.740955 0.370478-1.111433 0 0 0.246985-0.98794 0.370478-1.358418 0.49397-1.852388 1.111433-3.951761 1.97588-6.051134 0.864448-2.099373 1.97588-3.951761 2.840328-5.680656l0.617463-0.98794c0.246985-0.370478 0.370478-0.740955 0.617463-1.111433 0.49397-0.98794 1.111433-2.346358 2.099373-3.704776 2.593343-3.828268 5.433671-7.286059 8.520984-10.496864l16.547998-16.547998c3.087313-3.087313 6.545104-5.927641 10.373372-8.520984l0.123493-0.123493c1.358418-0.864448 2.593343-1.48191 3.581283-1.97588 0.370478-0.246985 0.864448-0.370478 1.234925-0.617463l0.98794-0.617463c1.605403-0.98794 3.457791-1.97588 5.557164-2.840328 2.099373-0.864448 4.198746-1.48191 5.927641-1.97588 0.49397-0.123493 0.864448-0.246985 1.358418-0.370478l0.246985-0.123493c0.370478-0.123493 0.740955-0.246985 1.111433-0.370478 0.98794-0.246985 2.099373-0.617463 3.457791-0.98794 3.457791-0.740955 6.792089-1.111433 9.385432-1.234925 0.123493 0 0.246985 0 0.370478 0 0.617463-0.123493 1.48191-0.123493 2.346358-0.246985 0.740955 0 1.48191 0 2.099373 0 2.716836 0 5.680656 0.246985 8.767969 0.617463 0.246985 0 0.740955 0 1.358418 0.123493 15.066088 2.099373 28.526773 8.767969 39.023637 19.264834l41.740473 41.740473c30.255668-18.523878 61.746261-31.861071 93.97781-39.888085l0-58.164978c0-1.852388 0.246985-3.457791 0.370478-4.816208 0.123493-0.49397 0.123493-0.98794 0.123493-1.358418 1.111433-12.843222 5.804149-24.94549 13.337192-35.071877 0.246985-0.246985 0.370478-0.49397 0.617463-0.740955l0.123493-0.123493c2.46985-3.210806 4.939701-5.927641 7.533044-8.273999 0.740955-0.617463 1.358418-1.111433 1.728895-1.48191 0.123493-0.123493 0.246985-0.123493 0.246985-0.246985 2.346358-1.97588 4.816208-4.075253 7.656536-5.927641 1.111433-0.740955 2.222865-1.358418 3.210806-1.728895 0.370478-0.123493 0.740955-0.370478 0.98794-0.49397l0.617463-0.370478c1.852388-0.98794 3.951761-2.222865 6.298119-3.210806 2.099373-0.864448 4.198746-1.48191 6.051134-1.97588l1.111433-0.246985c0.370478-0.123493 0.864448-0.246985 1.234925-0.370478 1.111433-0.370478 2.46985-0.864448 4.075253-1.111433 4.445731-0.864448 9.014954-1.358418 13.460685-1.358418l23.463579 0c4.445731 0 9.014954 0.49397 13.460685 1.358418 1.605403 0.370478 3.087313 0.740955 4.198746 1.111433 0.370478 0.123493 0.864448 0.246985 1.234925 0.370478l1.111433 0.370478c1.852388 0.49397 3.828268 1.111433 5.927641 1.97588 2.346358 0.98794 4.445731 2.099373 6.174626 3.087313l0.740955 0.370478c0.370478 0.246985 0.617463 0.370478 0.98794 0.49397 0.864448 0.49397 1.97588 0.98794 3.087313 1.728895 2.963821 1.852388 5.433671 3.951761 7.656536 5.927641 0.123493 0.123493 0.246985 0.123493 0.370478 0.246985 0.49397 0.370478 1.111433 0.864448 1.728895 1.48191 2.46985 2.346358 4.939701 5.063193 7.533044 8.273999l0.123493 0.123493c0.246985 0.246985 0.370478 0.49397 0.617463 0.740955 7.533044 10.126387 12.22576 22.228654 13.337192 35.071877 0 0.49397 0.123493 0.98794 0.123493 1.48191 0.123493 1.234925 0.370478 2.840328 0.370478 4.692716l0 58.164978c32.231548 8.027014 63.722142 21.364206 93.97781 39.888085l41.740473-41.740473c10.496864-10.496864 24.081042-17.165461 39.023637-19.264834 0.617463-0.123493 0.98794-0.123493 1.358418-0.123493 3.087313-0.370478 5.927641-0.617463 8.767969-0.617463 0.740955 0 1.48191 0 2.099373 0 0.98794 0 1.728895 0.123493 2.346358 0.246985 0.123493 0 0.246985 0 0.370478 0 2.593343 0.123493 5.927641 0.49397 9.385432 1.234925 1.358418 0.246985 2.46985 0.617463 3.457791 0.98794 0.370478 0.123493 0.740955 0.246985 1.111433 0.370478 0 0 1.111433 0.370478 1.48191 0.49397 1.852388 0.49397 3.828268 1.111433 5.927641 1.97588 2.099373 0.864448 3.951761 1.97588 5.557164 2.840328l0.98794 0.617463c0.370478 0.246985 0.864448 0.370478 1.234925 0.617463 0.98794 0.49397 2.222865 1.111433 3.581283 1.97588l0.123493 0.123493c3.828268 2.593343 7.286059 5.433671 10.496864 8.520984l16.547998 16.547998c3.087313 3.087313 5.927641 6.668596 8.520984 10.496864 0.864448 1.358418 1.48191 2.593343 2.099373 3.581283 0.246985 0.370478 0.370478 0.740955 0.617463 1.234925l0.617463 1.111433c0.864448 1.605403 1.97588 3.457791 2.840328 5.557164 0.98794 2.222865 1.48191 4.322238 2.099373 6.174626 0.123493 0.370478 0.370478 1.358418 0.370478 1.358418 0.123493 0.370478 0.246985 0.740955 0.370478 1.111433 0.246985 0.98794 0.740955 2.099373 0.98794 3.457791 0.740955 3.457791 1.111433 6.792089 1.234925 9.632417 0 0.123493 0 0.370478 0 0.49397 0.123493 0.617463 0.123493 1.358418 0.246985 2.222865 0.123493 3.457791 0 7.039074-0.49397 11.114327 0 0.370478 0 0.617463-0.123493 1.111433-2.099373 15.066088-8.767969 28.650265-19.264834 39.14713L800.355041 337.134588c18.400386 30.255668 31.737578 61.869754 39.764592 94.101302l58.164978 0c1.852388 0 3.457791 0.246985 4.692716 0.370478 0.49397 0.123493 0.98794 0.123493 1.48191 0.123493 12.843222 1.111433 24.94549 5.804149 35.071877 13.460685 0.246985 0.246985 0.49397 0.370478 0.864448 0.617463 3.210806 2.46985 5.927641 4.939701 8.273999 7.409551 0.617463 0.617463 1.111433 1.234925 1.48191 1.728895 0.123493 0.123493 0.123493 0.123493 0.123493 0.246985l0.123493 0.246985c1.97588 2.222865 3.951761 4.692716 5.804149 7.533044 0.864448 1.234925 1.358418 2.46985 1.852388 3.334298 0.123493 0.370478 0.370478 0.617463 0.49397 0.864448l0.49397 0.98794c0.98794 1.728895 2.099373 3.704776 2.963821 6.051134 0.864448 2.099373 1.358418 4.075253 1.852388 5.804149 0.123493 0.370478 0.246985 0.740955 0.370478 1.234925 0.123493 0.370478 0.246985 0.740955 0.370478 1.111433 0.370478 1.234925 0.864448 2.716836 1.234925 4.322238 0.864448 4.445731 1.358418 9.014954 1.358418 13.460685L967.193439 523.608297 967.193439 523.608297 967.193439 523.608297zM967.193439 523.608297" p-id="27312" fill="#ffffff"></path></svg>