<?xml version="1.0" standalone="no"?><!DOCTYPE svg PUBLIC "-//W3C//DTD SVG 1.1//EN" "http://www.w3.org/Graphics/SVG/1.1/DTD/svg11.dtd"><svg t="1490545038823" class="icon" style="" viewBox="0 0 1024 1024" version="1.1" xmlns="http://www.w3.org/2000/svg" p-id="23683" xmlns:xlink="http://www.w3.org/1999/xlink" width="16" height="16"><defs><style type="text/css"></style></defs><path d="M946.367 490.105c0.02-21.85-13.04-38.49-31.74-41.57-18.69-3.07-79.05-13.01-85.99-14.14-6.95-1.15-14.09-8.07-15.4-11.45-1.32-3.37-8.94-22.2-11.87-29.46-2.95-7.27-1.92-16.58 4.39-25.52 6.3-8.93 39.9-55.87 48.38-67.72 8.49-11.87 8.65-34.61-4.84-48.39-13.48-13.78-47.75-47.09-56.73-55.86-8.99-8.76-31.08-8.64-42.67-0.43-11.58 8.2-71.69 51.01-71.69 51.01s-9.97 6.89-20.67 2.64c-10.7-4.24-33.43-14.07-33.43-14.07s-7.19-5.43-9.68-19.79c-2.5-14.37-11.11-65.28-14.07-82.7-2.97-17.42-20.67-29.62-37.83-29.46-17.16 0.14-57.91 0-74.33 0s-32.26 15.68-34.75 29.46c-2.49 13.79-11.56 69.16-14.07 84.45-2.52 15.3-11.44 18.48-11.44 18.48s-19.56 8.06-29.91 12.31c-10.34 4.26-15.39 2.64-30.35-7.48-14.95-10.11-44.74-31.03-63.04-43.83-18.3-12.81-38.12-7.92-49.26 3.52s-36.06 35.77-51.02 50.43c-14.95 14.66-12.61 37.54 0.58 55.71 13.2 18.18 32.34 45.43 41.35 58.21 9.01 12.78 10.84 19.5 8.36 26.82-2.49 7.34-6.64 16.58-11.43 27.72-4.81 11.13-9.69 13.64-27.86 17.01-17.36 3.21-58.42 9.92-77.4 13.31-18.99 3.37-30.66 21.43-30.66 41.81l0 64.66c0 24.34 13.2 37.24 38.42 41.93 25.22 4.69 62.66 10.66 74.77 12.61 12.1 1.95 17.67 6.6 21.41 15.54 3.73 8.94 5.13 10.12 9.37 22.57 4.26 12.47 6.46 15.55-4.98 31.67-11.44 16.13-34.31 48.11-46.03 64.51-11.74 16.4-6.45 37.83 4.98 49.85 11.44 12.03 35.47 35.64 48.97 48.97 13.49 13.33 35.19 16.28 53.36 3.52 18.19-12.75 54.98-38.99 65.69-46.62 10.7-7.63 21.91-5.28 27.85-2.94 5.94 2.35 11.25 4.6 22 9.1 10.73 4.48 13.85 11.2 16.41 23.45 2.57 12.24 10.19 56.85 13.93 78.59 3.75 21.72 18.91 33.43 40.62 33.72 21.7 0.29 33.27 0.12 61.57 0 28.29-0.13 41.86-12.61 45.45-31.38 3.59-18.76 12.45-72.94 14.22-83.72 1.78-10.76 5.94-14.73 13.63-18.47 7.7-3.74 14.32-6.47 26.84-11.88 12.51-5.4 18.91-0.66 27.7 5.72 8.8 6.39 47.51 33.78 63.78 45.31 16.28 11.53 36.73 10.33 51.9-4.4 15.18-14.73 31.62-30.99 49.27-48.38 17.64-17.4 12.16-39.59 4.4-51.46-7.77-11.88-44.49-62.95-49.71-70.23-5.21-7.28-4.4-18.62-1.75-24.63 2.64-6.01 8.44-18.24 11.72-25.22 3.29-6.97 9.6-11.22 18.18-12.9 8.58-1.69 62.72-11 83.75-14.61 21.03-3.64 31.11-19.92 31.26-39.92C946.427 536.065 946.347 507.475 946.367 490.105zM908.587 557.385c0.21 5.76-4.66 10.65-8.82 11.38-4.17 0.73-63.26 11.38-81.48 14.29-18.21 2.92-33.23 15.07-38.72 28.06-3.98 9.44-5.47 13.51-10.59 26.96-5.12 13.44-4.64 32.19 2.56 42.26 7.2 10.08 46.82 64.9 50.38 70.45s4.27 11.95-1.28 17.5-40.99 41.2-47.39 47.39c-6.41 6.19-11.83 4.8-18.79 0-6.95-4.8-39.61-26.39-64.44-44.36-16.96-12.28-32.82-12.43-48.7-6.02-15.87 6.42 1.28-0.28-22.2 8.97-23.48 9.25-30.23 27.62-33.73 48.24-3.5 20.63-10.67 62.98-11.95 70.45-1.28 7.47-5.55 11.1-13.66 11.1l-64.9 0c-8.11 0-11.74-2.99-14.52-11.95-2.77-8.97-10.03-54.87-12.8-74.29-2.78-19.43-13.82-36.12-24.77-40.56-10.94-4.45-4.98-2.14-27.32-11.1-22.34-8.97-39.63-4.5-51.23 3.84-11.61 8.34-58.64 42.69-65.33 46.96-6.68 4.28-14.65 3.28-18.35-0.42-3.7-3.7-40.56-40.56-46.54-46.54-5.98-5.98-5.36-12.92 0-20.49 5.36-7.58 28.39-40.76 40.99-57.95 12.59-17.2 17.93-34.74 9.82-53.49-8.12-18.74-4.42-10.24-12.39-28.6-7.96-18.36-24.28-24.46-38.42-26.9-14.14-2.43-68.88-11.53-76.85-13.23-7.97-1.71-11.95-7.26-11.95-14.09l0-66.18c0-9.53 7.67-12.44 12.38-13.23 4.7-0.8 54.22-9.18 73-12.39 18.79-3.2 36.36-11.32 43.55-29.03 7.19-17.7 4.27-11.1 11.1-27.32 6.83-16.23 3.8-33.94-7.68-49.96-11.49-16.01-38.85-54-44.4-61.9-5.55-7.9-5.77-12.6 0.85-19.21 6.62-6.62 42.05-42.48 46.96-46.97 4.91-4.48 12.07-5.4 18.36-0.85 6.3 4.55 49.31 35.65 64.04 46.11 14.73 10.46 32.35 12.56 49.1 5.55 16.75-7.02 10.25-4.48 26.9-11.1s24.84-19.09 28.18-39.71c3.33-20.61 11.95-74.14 12.81-77.7 0.85-3.55 5.55-10.46 11.74-10.46s65.82 0.07 69.8 0c3.99-0.07 10.3 3.29 11.32 9.18 1.02 5.9 13.02 74.29 14.94 86.25 1.92 11.95 15.58 28.57 25.54 32.73 9.96 4.16 21.35 8.75 31.31 13.09 9.97 4.34 30.13 1.91 36.15-2.28 6.03-4.18 70.52-48.81 75.43-52.37 4.91-3.56 11.52-3.27 17.64 2.85s43.34 43.19 47.54 47.53c4.19 4.34 4.66 8.66 1.14 13.66-3.53 5.01-36.72 51.8-47.54 67.46-10.81 15.65-11.73 33.73-5.41 48.96 6.33 15.22 3.99 9.39 9.11 21.91 5.13 12.53 16.28 29.03 33.59 31.88 17.31 2.85 76.92 12.74 84.82 13.95 7.9 1.21 11.1 7.18 11.1 13.37S908.377 551.615 908.587 557.385z" p-id="23684" fill="#2c2c2c"></path><path d="M526.833 322.805c-110.45 0-200 89.54-200 200s89.55 200 200 200c110.46 0 200-89.54 200-200S637.293 322.805 526.833 322.805zM526.833 687.805c-91.12 0-165-73.87-165-165s73.88-165 165-165c91.13 0 165 73.87 165 165S617.963 687.805 526.833 687.805z" p-id="23685" fill="#2c2c2c"></path></svg>