<?xml version="1.0" standalone="no"?><!DOCTYPE svg PUBLIC "-//W3C//DTD SVG 1.1//EN" "http://www.w3.org/Graphics/SVG/1.1/DTD/svg11.dtd"><svg t="1490545098959" class="icon" style="" viewBox="0 0 1024 1024" version="1.1" xmlns="http://www.w3.org/2000/svg" p-id="25574" xmlns:xlink="http://www.w3.org/1999/xlink" width="32" height="32"><defs><style type="text/css"></style></defs><path d="M989.1 512.1l-18.7 0c0 126.6-51.3 241.1-134.2 324.1-83 83-197.4 134.3-324.1 134.3-126.6 0-241.1-51.3-324.1-134.3-82.9-83-134.3-197.5-134.3-324.1 0-126.6 51.4-241.1 134.3-324.1 83-83.1 197.5-134.3 324.1-134.3 126.7 0 241.1 51.2 324.1 134.3 83 83 134.2 197.5 134.2 324.1L989.1 512.1l18.9 0c0-274-222-496.1-495.9-496.1C238.2 16 16 238 16 512.1c0 274 222.2 495.9 496.1 495.9 274 0 495.9-221.9 495.9-495.9L989.1 512.1 989.1 512.1z" p-id="25575" fill="#ffffff"></path><path d="M671 399.2l-18.8 0c0 38.6-15.6 73.5-41 99-25.5 25.4-60.3 41.1-99.1 41.1-38.7 0-73.6-15.7-99.1-41.1-25.4-25.5-41.1-60.4-41.1-99 0-38.8 15.7-73.7 41.1-99.1 25.4-25.4 60.3-41 99.1-41 38.8 0 73.6 15.5 99.1 41 25.4 25.4 41 60.3 41 99.1L671 399.2l18.8 0c0-98.2-79.5-177.8-177.8-177.8-98.2 0-177.8 79.6-177.8 177.8C334.3 497.3 413.8 577 512.1 577c98.3 0 177.8-79.7 177.8-177.8L671 399.2 671 399.2z" p-id="25576" fill="#ffffff"></path><path d="M148 820.6c12.3-16.1 25.6-31.3 40-45.6 83-83 197.5-134.3 324.1-134.3 126.7 0 241.1 51.3 324.1 134.3 14.2 14.2 27.6 29.5 39.9 45.6 8.4-9.9 16.3-20.1 23.9-30.6-90.9-113.9-230.9-186.8-387.9-186.8-157 0-297 72.9-387.9 186.8C131.8 800.5 139.8 810.6 148 820.6L148 820.6z" p-id="25577" fill="#ffffff"></path></svg>