<?xml version="1.0" encoding="utf-8"?>
<!-- Generator: Adobe Illustrator 14.0.0, SVG Export Plug-In . SVG Version: 6.00 Build 43363)  -->
<!DOCTYPE svg PUBLIC "-//W3C//DTD SVG 1.1//EN" "http://www.w3.org/Graphics/SVG/1.1/DTD/svg11.dtd">
<svg version="1.1" id="图层_1" xmlns="http://www.w3.org/2000/svg" xmlns:xlink="http://www.w3.org/1999/xlink" x="0px" y="0px"
	 width="24px" height="24px" viewBox="0 0 24 24" enable-background="new 0 0 24 24" xml:space="preserve">
<path d="M7.777,11.777h7.701c0.445,0,0.739-0.296,0.739-0.739c0-0.444-0.294-0.74-0.739-0.74H7.777"/>
<path d="M10.298,10.298H6.597c-0.445,0-0.74,0.296-0.74,0.74c0,0.443,0.295,0.739,0.74,0.739h3.701"/>
<path d="M21.549,20.511l-3.85-3.849c2.96-3.477,2.888-8.659-0.37-11.841c-1.628-1.703-3.774-2.592-6.069-2.592
	c-2.369,0-4.663,0.963-6.365,2.666C1.415,8.373,1.342,13.924,4.746,17.33c1.628,1.627,3.775,2.516,6.069,2.516
	c2.146,0,4.146-0.74,5.774-2.146l3.85,3.85c0.147,0.147,0.368,0.223,0.517,0.223c0.147,0,0.37-0.075,0.518-0.223
	C21.845,21.252,21.845,20.733,21.549,20.511z M5.782,16.293C2.97,13.479,3.044,8.818,5.931,5.93c1.406-1.406,3.331-2.22,5.255-2.22
	s3.701,0.74,5.032,2.073c2.813,2.813,2.739,7.475-0.146,10.363c-1.408,1.406-3.332,2.219-5.331,2.219
	C8.965,18.364,7.114,17.625,5.782,16.293z"/>
</svg>
