<?xml version="1.0" standalone="no"?><!DOCTYPE svg PUBLIC "-//W3C//DTD SVG 1.1//EN" "http://www.w3.org/Graphics/SVG/1.1/DTD/svg11.dtd"><svg t="1492654122260" class="icon" style="" viewBox="0 0 1024 1024" version="1.1" xmlns="http://www.w3.org/2000/svg" p-id="10957" xmlns:xlink="http://www.w3.org/1999/xlink" width="24" height="24"><defs><style type="text/css"></style></defs><path d="M388.564658 433.120359l-221.659743-221.659743 42.454315-42.454315 221.659743 221.659743-42.454315 42.454315Z" p-id="10958" fill="#2c2c2c"></path><path d="M123.918677 384.604013 121.796163 129.54108 373.426946 124.189636 374.714002 184.22968 182.310386 188.294068 183.958721 384.084675Z" p-id="10959" fill="#2c2c2c"></path><path d="M209.372448 877.378629l-42.454315-42.454315 221.659743-221.659743 42.454315 42.454315-221.659743 221.659743Z" p-id="10960" fill="#2c2c2c"></path><path d="M373.426946 922.187078 121.796163 916.880794 123.918677 661.772701 183.958721 662.29204 182.310386 858.082646 374.714002 862.147034Z" p-id="10961" fill="#2c2c2c"></path><path d="M633.517111 433.136763l-42.454315-42.454315 221.643777-221.643777 42.454315 42.454315-221.643777 221.643777Z" p-id="10962" fill="#2c2c2c"></path><path d="M898.184609 384.604013 838.144564 384.084675 839.77032 188.294068 647.389283 184.22968 648.69892 124.189636 900.307122 129.54108Z" p-id="10963" fill="#2c2c2c"></path><path d="M818.919749 857.379423l-221.659743-221.659743 42.470281-42.470281 221.659743 221.659743-42.470281 42.470281Z" p-id="10964" fill="#2c2c2c"></path><path d="M654.840662 902.158677 653.598765 842.141213 845.957222 838.076825 844.331466 642.286218 904.37151 641.7443 906.471444 896.852393Z" p-id="10965" fill="#2c2c2c"></path></svg>