<?xml version="1.0" encoding="utf-8"?>
<!-- Generator: Adobe Illustrator 18.0.0, SVG Export Plug-In . SVG Version: 6.00 Build 0)  -->
<!DOCTYPE svg PUBLIC "-//W3C//DTD SVG 1.1//EN" "http://www.w3.org/Graphics/SVG/1.1/DTD/svg11.dtd">
<svg version="1.1" id="图层_1" xmlns="http://www.w3.org/2000/svg" xmlns:xlink="http://www.w3.org/1999/xlink" x="0px" y="0px"
	 viewBox="0 0 20 20" enable-background="new 0 0 20 20" xml:space="preserve" width="20" height="20">
<path fill="#3db58d" d="M18.1-0.1H1.9C0.9-0.1,0,0.8,0,1.8v12.5c0,1,0.9,1.9,1.9,1.8h5.5v2.5l-1.2,0.9c0,0-0.4,0.6,0.2,0.6l7.8,0
	c0,0,0.5-0.3,0.3-0.5c-0.3-0.3-1.2-1-1.2-1v-2.4h4.8c1.1,0.1,1.9-0.7,1.9-1.8V1.8C20,0.8,19.1-0.1,18.1-0.1z M9.6,15.7v-1.3h1.3v1.3
	H9.6z M18.7,12.3c0,0.7-0.6,1.3-1.3,1.3H2.6c-0.7,0-1.3-0.6-1.3-1.3V2.9c0-0.7,0.6-1.3,1.3-1.3h14.8c0.7,0,1.3,0.6,1.3,1.3V12.3z"/>
</svg>
