<?xml version="1.0" encoding="utf-8"?>
<!-- Generator: Adobe Illustrator 18.0.0, SVG Export Plug-In . SVG Version: 6.00 Build 0)  -->
<!DOCTYPE svg PUBLIC "-//W3C//DTD SVG 1.1//EN" "http://www.w3.org/Graphics/SVG/1.1/DTD/svg11.dtd">
<svg version="1.1" id="图层_1" xmlns="http://www.w3.org/2000/svg" xmlns:xlink="http://www.w3.org/1999/xlink" x="0px" y="0px"
	 viewBox="0 0 20 20" enable-background="new 0 0 20 20" xml:space="preserve" width="20" height="20">
<g>
	<path fill="#3db58d" d="M7.9,0.2c0,0,0.4,0.2,0.7,0.9C9,1.8,8.8,3.4,8.7,3.7C8.6,3.9,8,5.5,7.1,4.9C6.2,4.4,5.6,4.8,5.6,4.8
		S6.2,5,6.3,5.6c0.1,0.6,0,1.4-0.7,1.7C4.9,7.6,4.4,8.8,4.7,9.5c0.2,0.7,0.6,1.1,1.1,1.3h2.1c0,0-0.1-1.2,0.6-2.1
		c0.7-0.9,1.3-1.2,1.4-2.8c0,0,0.4,0.3,0.6,0.9c0.1,0.6,0,1.3-0.4,1.8c-0.4,0.5,0.1,1.6,0.5,1.6c0.4,0,1,0.2,1.3-1.2
		c0,0,0.4-0.1,0.6,0.7c0.2,0.8,0.2,1.1,0.2,1.1h2.9c0,0-0.5-2-1.5-3c0,0-0.2,0.1,0-1.3c0.2-1.4,0.5-2-0.2-2.8c-0.7-0.8-1-0.7-1-0.7
		s-1.2,1.7-1.5,1.8c0,0,0.7-1.1,0.2-2.7C10.9,0.5,8.7-0.3,7.9,0.2L7.9,0.2z M7.9,0.2"/>
	<path fill="#3db58d" d="M7.2,14c0,0.7-0.5,1.2-1.2,1.2H1.2C0.5,15.2,0,14.7,0,14v-1.6c0-0.7,0.5-1.2,1.2-1.2H6
		c0.7,0,1.2,0.5,1.2,1.2V14L7.2,14z M7.2,14"/>
	<path fill="#3db58d" d="M12.2,18.7c0,0.7-0.5,1.2-1.2,1.2H1.2c-0.7,0-1.2-0.5-1.2-1.2v-1.6c0-0.7,0.5-1.2,1.2-1.2H11
		c0.7,0,1.2,0.5,1.2,1.2V18.7L12.2,18.7z M12.2,18.7"/>
	<path fill="#3db58d" d="M20,18.7c0,0.7-0.5,1.2-1.2,1.2h-4.5c-0.7,0-1.2-0.5-1.2-1.2v-1.6c0-0.7,0.5-1.2,1.2-1.2h4.5
		c0.7,0,1.2,0.5,1.2,1.2V18.7L20,18.7z M20,18.7"/>
	<path fill="#3db58d" d="M20,14c0,0.7-0.5,1.2-1.2,1.2H8.7c-0.7,0-1.2-0.5-1.2-1.2v-1.6c0-0.7,0.5-1.2,1.2-1.2h10.1
		c0.7,0,1.2,0.5,1.2,1.2V14L20,14z M20,14"/>
</g>
</svg>
