<?xml version="1.0" encoding="utf-8"?>
<!-- Generator: Adobe Illustrator 18.0.0, SVG Export Plug-In . SVG Version: 6.00 Build 0)  -->
<!DOCTYPE svg PUBLIC "-//W3C//DTD SVG 1.1//EN" "http://www.w3.org/Graphics/SVG/1.1/DTD/svg11.dtd">
<svg version="1.1" id="图层_1" xmlns="http://www.w3.org/2000/svg" xmlns:xlink="http://www.w3.org/1999/xlink" x="0px" y="0px"
	 viewBox="0 0 20 20" enable-background="new 0 0 20 20" xml:space="preserve" width="20" height="20">
<g fill="#3db58d">
	<rect x="0.1" y="12.4" width="14.9" height="4.5"/>
	<polygon points="19.9,7.7 15,17 15,12.4 19.9,3.1 		"/>
	<path d="M5,3l-4.9,9.3H15L19.8,3C19.8,3,5,3,5,3z M13.5,7.3l0.3-0.7h-0.9l-2,1l0.8,1h0.9L13,7.9l0,0l0.1-0.2L15,9.2l-3.5,1.5
		l0.1-0.2l0,0l0.5-0.7l-0.9-0.1L9.8,8.1L6.4,9.7l0,0h-3L4,8.6h2.4l0,0l2.8-1.1L8.4,6.5H5l0.7-1h3.5l0,0l1.3,1.4l2.8-1.4l0,0l0,0h1.4
		L15,4.9l0,0l0.1-0.1l1.6,1.3l-3.4,1.4L13.5,7.3L13.5,7.3z"/>

</g>
</svg>
