<?xml version="1.0" encoding="utf-8"?>
<!-- Generator: Adobe Illustrator 18.0.0, SVG Export Plug-In . SVG Version: 6.00 Build 0)  -->
<!DOCTYPE svg PUBLIC "-//W3C//DTD SVG 1.1//EN" "http://www.w3.org/Graphics/SVG/1.1/DTD/svg11.dtd">
<svg version="1.1" id="图层_1" xmlns="http://www.w3.org/2000/svg" xmlns:xlink="http://www.w3.org/1999/xlink" x="0px" y="0px"
	 viewBox="0 0 20 20" enable-background="new 0 0 20 20" xml:space="preserve" width="20" height="20">
<g>
	<path fill="#3db58d" d="M10,11.7c5.5,0,10-2.6,10-5.8C20,2.6,15.5,0,10,0C4.5,0,0,2.6,0,5.8C0,9.1,4.5,11.7,10,11.7z M11.8,2.8
		l4.3-0.3l-0.5,2.3l-1.1-0.6l-2.1,1.1l-1.6-0.9l2.1-1.1L11.8,2.8z M12.4,6.3l2.1,1.1l1.1-0.6l0.5,2.3l-4.3-0.3l1.1-0.6l-2.1-1.1
		L12.4,6.3z M8.2,2.8L7.1,3.4l2.1,1.1L7.6,5.4L5.5,4.3L4.4,4.9L3.9,2.5L8.2,2.8z M4.4,6.8l1.1,0.6l2.1-1.1l1.6,0.9L7.1,8.3l1.1,0.6
		L3.9,9.2L4.4,6.8z"/>
	<path fill="#3db58d" d="M10,12.5c-5.5,0-10-2.6-10-5.8v7.2h0c0,0.1,0,0.2,0,0.3C0,17.4,4.5,20,10,20c5.5,0,10-2.6,10-5.8
		c0-0.1,0-0.2,0-0.3h0V6.7C20,9.9,15.5,12.5,10,12.5z"/>
</g>
</svg>
