<?xml version="1.0" encoding="utf-8"?>
<!-- Generator: Adobe Illustrator 18.0.0, SVG Export Plug-In . SVG Version: 6.00 Build 0)  -->
<!DOCTYPE svg PUBLIC "-//W3C//DTD SVG 1.1//EN" "http://www.w3.org/Graphics/SVG/1.1/DTD/svg11.dtd">
<svg version="1.1" id="图层_1" xmlns="http://www.w3.org/2000/svg" xmlns:xlink="http://www.w3.org/1999/xlink" x="0px" y="0px"
	 viewBox="0 0 20 20" enable-background="new 0 0 20 20" xml:space="preserve" width="20" height="20">
<g>
	<path fill="#3db58d" d="M10,0C4.5,0,0,2.6,0,5.8s4.5,5.8,10,5.8s10-2.6,10-5.8S15.5,0,10,0z M8.2,8.9L3.9,9.2l0.5-2.4l1.1,0.6
		l2.1-1.1l1.6,0.9L7.1,8.3L8.2,8.9z M7.6,5.4L5.5,4.3L4.4,4.9L3.9,2.5l4.3,0.3L7.1,3.4l2.1,1.1L7.6,5.4z M11.8,8.9l1.1-0.6l-2.1-1.1
		l1.6-0.9l2.1,1.1l1.1-0.6l0.5,2.3L11.8,8.9z M15.6,4.9l-1.1-0.6l-2.1,1.1l-1.6-0.9l2.1-1.1l-1.1-0.6l4.3-0.3L15.6,4.9z"/>
	<path fill="#3db58d" d="M20,6.7c0,3.2-4.5,5.8-10,5.8S0,9.9,0,6.7v7.2h0c0,0.1,0,0.2,0,0.3C0,17.4,4.5,20,10,20s10-2.6,10-5.8
		c0-0.1,0-0.2,0-0.3h0V6.7z M13.7,15.3v-0.8l-1,0l-1.5,1.1l1.5,1.1l1,0V16l0,0v-0.2l2.9,1.5l-2.9,1.5v-0.2l0,0V18l-1.3,0v0l0,0
		l-0.2,0l0.2,0l-2.3-1.6l-2.2,1.5v0H4.2v-1.2l3.1,0v0L9,15.6l-1.7-1.1v0l-3.1,0v-1.2h3.7v0l2.2,1.5l2.1-1.6v0l0,0l1.5,0v-0.8l0,0
		v-0.2l2.9,1.5l-2.9,1.5L13.7,15.3L13.7,15.3z"/>
</g>
</svg>
