<?xml version="1.0" standalone="no"?><!DOCTYPE svg PUBLIC "-//W3C//DTD SVG 1.1//EN" "http://www.w3.org/Graphics/SVG/1.1/DTD/svg11.dtd"><svg t="1490171102526" class="icon" style="" viewBox="0 0 1024 1024" version="1.1" xmlns="http://www.w3.org/2000/svg" p-id="5627" xmlns:xlink="http://www.w3.org/1999/xlink" width="64" height="64"><defs><style type="text/css"></style></defs><path d="M73.142857 804.571429l585.142857 0 0-73.142857-585.142857 0 0 73.142857zm0-292.571429l585.142857 0 0-73.142857-585.142857 0 0 73.142857zm896 256q0-22.857143-16-38.857143t-38.857143-16-38.857143 16-16 38.857143 16 38.857143 38.857143 16 38.857143-16 16-38.857143zm-896-548.571429l585.142857 0 0-73.142857-585.142857 0 0 73.142857zm896 256q0-22.857143-16-38.857143t-38.857143-16-38.857143 16-16 38.857143 16 38.857143 38.857143 16 38.857143-16 16-38.857143zm0-292.571429q0-22.857143-16-38.857143t-38.857143-16-38.857143 16-16 38.857143 16 38.857143 38.857143 16 38.857143-16 16-38.857143zm54.857143 475.428571l0 219.428571-1024 0 0-219.428571 1024 0zm0-292.571429l0 219.428571-1024 0 0-219.428571 1024 0zm0-292.571429l0 219.428571-1024 0 0-219.428571 1024 0z" p-id="5628" fill="#d81e06"></path></svg>