<?xml version="1.0" encoding="utf-8"?>
<!-- Generator: Adobe Illustrator 18.0.0, SVG Export Plug-In . SVG Version: 6.00 Build 0)  -->
<!DOCTYPE svg PUBLIC "-//W3C//DTD SVG 1.1//EN" "http://www.w3.org/Graphics/SVG/1.1/DTD/svg11.dtd">
<svg version="1.1" id="图层_1" xmlns="http://www.w3.org/2000/svg" xmlns:xlink="http://www.w3.org/1999/xlink" x="0px" y="0px"
	 viewBox="0 0 20 20" enable-background="new 0 0 20 20" xml:space="preserve" width="20" height="20">
<g>
	<path fill="#3db58d" d="M16.3,0H3.7C3.3,0,3,0.3,3,0.6v18.7C3,19.7,3.3,20,3.7,20h12.6c0.4,0,0.7-0.3,0.7-0.7V0.6
					C17,0.3,16.8,0,16.3,0z M11.3,11.5c-0.4,0-0.8-0.3-0.8-0.8s0.3-0.8,0.8-0.8s0.8,0.3,0.8,0.8S11.7,11.5,11.3,11.5z M14.3,12.1
					c-0.8,0-1.4-0.6-1.4-1.4c0-0.8,0.6-1.4,1.4-1.4s1.4,0.6,1.4,1.4C15.7,11.5,15.1,12.1,14.3,12.1z M15.7,8.2H4.4V5.6h11.4V8.2z
					 M15.7,4.3H4.4V1.6h11.4V4.3z"/>
	<circle fill="#3db58d" cx="14.3" cy="10.7" r="0.8"/>
</g>
</svg>
