<?xml version="1.0" standalone="no"?><!DOCTYPE svg PUBLIC "-//W3C//DTD SVG 1.1//EN" "http://www.w3.org/Graphics/SVG/1.1/DTD/svg11.dtd"><svg t="1490171891697" class="icon" style="" viewBox="0 0 1024 1024" version="1.1" xmlns="http://www.w3.org/2000/svg" p-id="996" xmlns:xlink="http://www.w3.org/1999/xlink" width="200" height="200"><defs><style type="text/css"></style></defs><path d="M903.5 687.95h-783c-21.6 0-39.15 17.55-39.15 39.15v195.75c0 21.6 17.55 39.15 39.15 39.15h783c21.6 0 39.15-17.55 39.15-39.15v-195.75c0-21.6-17.55-39.15-39.15-39.15zM277.1 864.35c-21.6 0-39.15-17.55-39.15-39.15s17.55-39.15 39.15-39.15c21.6 0 39.15 17.55 39.15 39.15 0 21.6-17.55 39.15-39.15 39.15zM394.55 864.35c-21.6 0-39.15-17.55-39.15-39.15s17.55-39.15 39.15-39.15c21.6 0 39.15 17.55 39.15 39.15 0 21.6-17.55 39.15-39.15 39.15zM786.050 864.35h-195.75c-21.6 0-39.15-17.55-39.15-39.15s17.55-39.15 39.15-39.15h195.75c21.6 0 39.15 17.55 39.15 39.15s-17.55 39.15-39.15 39.15zM903.5 375.2h-783c-21.6 0-39.15 17.55-39.15 39.15v195.75c0 21.6 17.55 39.15 39.15 39.15h783c21.6 0 39.15-17.55 39.15-39.15v-195.75c0-21.6-17.55-39.15-39.15-39.15zM277.1 551.15c-21.6 0-39.15-17.55-39.15-39.15s17.55-39.15 39.15-39.15c21.6 0 39.15 17.55 39.15 39.15s-17.55 39.15-39.15 39.15zM394.55 551.15c-21.6 0-39.15-17.55-39.15-39.15s17.55-39.15 39.15-39.15c21.6 0 39.15 17.55 39.15 39.15s-17.55 39.15-39.15 39.15zM786.050 551.15h-195.75c-21.6 0-39.15-17.55-39.15-39.15s17.55-39.15 39.15-39.15h195.75c21.6 0 39.15 17.55 39.15 39.15s-17.55 39.15-39.15 39.15zM903.5 62h-783c-21.6 0-39.15 17.55-39.15 39.15v195.75c0 21.6 17.55 39.15 39.15 39.15h783c21.6 0 39.15-17.55 39.15-39.15v-195.75c0-21.6-17.55-39.15-39.15-39.15zM277.1 237.95c-21.6 0-39.15-17.55-39.15-39.15s17.55-39.15 39.15-39.15c21.6 0 39.15 17.55 39.15 39.15 0 21.6-17.55 39.15-39.15 39.15zM394.55 237.95c-21.6 0-39.15-17.55-39.15-39.15s17.55-39.15 39.15-39.15c21.6 0 39.15 17.55 39.15 39.15 0 21.6-17.55 39.15-39.15 39.15zM786.050 237.95h-195.75c-21.6 0-39.15-17.55-39.15-39.15s17.55-39.15 39.15-39.15h195.75c21.6 0 39.15 17.55 39.15 39.15s-17.55 39.15-39.15 39.15z" fill="#707070" p-id="997"></path></svg>