<?xml version="1.0" standalone="no"?><!DOCTYPE svg PUBLIC "-//W3C//DTD SVG 1.1//EN" "http://www.w3.org/Graphics/SVG/1.1/DTD/svg11.dtd"><svg t="1493043279934" class="icon" style="" viewBox="0 0 1024 1024" version="1.1" xmlns="http://www.w3.org/2000/svg" p-id="1000" xmlns:xlink="http://www.w3.org/1999/xlink" width="64" height="64"><defs><style type="text/css"></style></defs><path d="M546.9184 665.4976c-48.2816 0-96.5632-18.3808-133.3248-55.1424-9.984-9.984-9.984-26.2144 0-36.1984s26.2144-9.984 36.1984 0c53.5552 53.5552 140.6464 53.5552 194.2016 0l186.1632-186.1632c53.5552-53.5552 53.5552-140.6464 0-194.2016s-140.6464-53.5552-194.2016 0l-157.0816 157.0816c-9.984 9.984-26.2144 9.984-36.1984 0s-9.984-26.2144 0-36.1984l157.0816-157.0816c73.5232-73.5232 193.1264-73.5232 266.5984 0s73.5232 193.1264 0 266.5984l-186.1632 186.1632c-36.7616 36.7616-85.0432 55.1424-133.3248 55.1424z" p-id="1001" fill="#2c2c2c"></path><path d="M239.7184 972.6976c-48.2816 0-96.5632-18.3808-133.3248-55.1424-73.5232-73.5232-73.5232-193.1264 0-266.5984l186.1632-186.1632c73.5232-73.5232 193.1264-73.5232 266.5984 0 9.984 9.984 9.984 26.2144 0 36.1984s-26.2144 9.984-36.1984 0c-53.5552-53.5552-140.6464-53.5552-194.2016 0l-186.1632 186.1632c-53.5552 53.5552-53.5552 140.6464 0 194.2016s140.6464 53.5552 194.2016 0l157.0816-157.0816c9.984-9.984 26.2144-9.984 36.1984 0s9.984 26.2144 0 36.1984l-157.0816 157.0816c-36.7616 36.7616-85.0432 55.1424-133.3248 55.1424z" p-id="1002" fill="#2c2c2c"></path></svg>