<?xml version="1.0" standalone="no"?><!DOCTYPE svg PUBLIC "-//W3C//DTD SVG 1.1//EN" "http://www.w3.org/Graphics/SVG/1.1/DTD/svg11.dtd"><svg t="1493044282505" class="icon" style="" viewBox="0 0 1024 1024" version="1.1" xmlns="http://www.w3.org/2000/svg" p-id="6599" xmlns:xlink="http://www.w3.org/1999/xlink" width="64" height="64"><defs><style type="text/css"></style></defs><path d="M737 662c-13.8 0-27 2.8-38.9 7.9L575.4 513.2l126.7-157.4c10.8 4 22.6 6.2 34.8 6.2 55.2 0 100-44.8 100-100s-44.8-100-100-100-100 44.8-100 100c0 24.8 9.1 47.6 24.1 65.1L530.4 489.4h-146c-10.2-44.3-50-77.4-97.4-77.4-55.2 0-100 44.8-100 100s44.8 100 100 100c45.7 0 84.3-30.7 96.2-72.6h149.3l125.9 160.8C645 717.2 637 738.7 637 762c0 55.2 44.8 100 100 100s100-44.8 100-100-44.8-100-100-100z" fill="#8a8a8a" p-id="6600"></path></svg>