<?xml version="1.0" standalone="no"?><!DOCTYPE svg PUBLIC "-//W3C//DTD SVG 1.1//EN" "http://www.w3.org/Graphics/SVG/1.1/DTD/svg11.dtd"><svg t="1493044173345" class="icon" style="" viewBox="0 0 1024 1024" version="1.1" xmlns="http://www.w3.org/2000/svg" p-id="4484" xmlns:xlink="http://www.w3.org/1999/xlink" width="64" height="64"><defs><style type="text/css"></style></defs><path d="M117.041 796.597h110.489v110.405h-110.531v-110.405zM796.428 865.278v-68.681h110.531v110.405h-110.531v-41.723zM185.848 254.445h68.597v-68.808h515.152v68.808h68.597v515.278h-68.597v68.639h-515.152v-68.639h-68.597v-515.278zM117.041 116.998h110.531v110.573h-110.531v-110.573zM796.428 158.722v-41.723h110.531v110.573h-110.531v-68.85zM769.555 90.125v68.597h-515.109v-68.597h-164.32v164.32h68.766v515.278h-68.766v164.152h164.278v-68.597h515.152v68.597h164.278v-164.152h-68.766v-515.278h68.766v-164.32h-164.278z" p-id="4485" fill="#707070"></path></svg>