<?xml version="1.0" standalone="no"?><!DOCTYPE svg PUBLIC "-//W3C//DTD SVG 1.1//EN" "http://www.w3.org/Graphics/SVG/1.1/DTD/svg11.dtd"><svg t="1490930269190" class="icon" style="" viewBox="0 0 1025 1024" version="1.1" xmlns="http://www.w3.org/2000/svg" p-id="13431" xmlns:xlink="http://www.w3.org/1999/xlink" width="24.0234375" height="24"><defs><style type="text/css"></style></defs><path d="M642.176 113.184l-260.352 0c-9.152 0-16.576 7.424-16.576 16.576l0 764.448c0 9.152 7.424 16.576 16.576 16.576l260.352 0c9.152 0 16.576-7.424 16.576-16.576l0-764.448c0-9.152-7.424-16.576-16.576-16.576zM512 765.152c-32 0-57.92-25.952-57.92-57.92s25.952-57.92 57.92-57.92c32 0 57.92 25.952 57.92 57.92s-25.952 57.92-57.92 57.92zM618.56 469.44c0 9.152-7.424 16.576-16.576 16.576l-179.936 0c-9.152 0-16.576-7.424-16.576-16.576l0-16.576c0-9.184 7.424-16.608 16.576-16.608l179.936 0c9.152 0 16.576 7.424 16.576 16.608l0 16.576zM618.56 386.528c0 9.152-7.424 16.576-16.576 16.576l-179.936 0c-9.152 0-16.576-7.424-16.576-16.576l0-16.608c0-9.152 7.424-16.576 16.576-16.576l179.936 0c9.152 0 16.576 7.424 16.576 16.576l0 16.608zM618.56 303.616c0 9.184-7.424 16.576-16.576 16.576l-179.936 0c-9.152 0-16.576-7.424-16.576-16.576l0-16.576c0-9.152 7.424-16.576 16.576-16.576l179.936 0c9.152 0 16.576 7.424 16.576 16.576l0 16.576zM618.56 220.704c0 9.152-7.424 16.576-16.576 16.576l-179.936 0c-9.152 0-16.576-7.424-16.576-16.576l0-16.576c0-9.184 7.424-16.608 16.576-16.608l179.936 0c9.152 0 16.576 7.424 16.576 16.576l0 16.576z" p-id="13432" fill="#098be3"></path><path d="M1024 201.472c0-7.808-6.592-14.752-14.752-15.488-77.184-7.008-154.4-14.048-231.584-21.024-0.864-0.096-3.264 0-5.824 0.736l-90.24 22.784 0 709.056 93.408 13.216c1.12 0.256 2.592 0 2.688 0 77.184-7.008 154.4-14.816 231.584-21.824 8.16-0.736 14.752-7.68 14.752-15.52 0-180.32 0-491.552 0-671.904zM798.688 250.048c0-8.384 6.592-14.72 14.752-14.144 53.344 3.776 106.688 7.552 160.032 11.296 8.16 0.576 14.752 7.456 14.752 15.36l0 14.304c0 7.904-6.592 13.952-14.752 13.472-53.344-3.04-106.688-6.112-160.032-9.12-8.16-0.48-14.752-7.648-14.752-16.032l0-15.168zM988.224 491.744c0 7.904-6.592 14.4-14.752 14.464-53.344 0.576-106.688 1.152-160.032 1.728-8.16 0.096-14.752-6.624-14.752-15.008l0-15.168c0-8.384 6.592-15.168 14.752-15.168 53.344 0.16 106.688 0.32 160.032 0.448 8.16 0.032 14.752 6.464 14.752 14.368l0 14.336zM973.472 434.24c-53.344-0.64-106.688-1.248-160.032-1.888-8.16-0.096-14.752-6.976-14.752-15.36l0-15.168c0-8.384 6.592-15.008 14.752-14.816 53.344 1.344 106.688 2.688 160.032 4.064 8.16 0.192 14.752 6.784 14.752 14.72 0 5.728 0 8.576 0 14.304 0 7.904-6.592 14.24-14.752 14.144zM988.224 348.512c0 7.904-6.592 14.08-14.752 13.824-53.344-1.824-106.688-3.68-160.032-5.504-8.16-0.288-14.752-7.296-14.752-15.68l0-15.168c0-8.384 6.592-14.848 14.752-14.464 53.344 2.528 106.688 5.12 160.032 7.68 8.16 0.384 14.752 7.104 14.752 15.04l0 14.336z" p-id="13433" fill="#098be3"></path><path d="M246.336 164.928c-77.184 7.008-154.4 14.016-231.584 21.024-8.16 0.736-14.752 7.68-14.752 15.488 0 180.32 0 491.584 0 671.904 0 7.808 6.592 14.752 14.752 15.52 77.184 7.008 154.4 14.816 231.584 21.824 0.096 0 1.568 0.256 2.688 0l93.408-13.216 0-709.056-90.24-22.784c-2.56-0.736-4.992-0.8-5.824-0.736zM225.312 492.896c0 8.384-6.592 15.104-14.752 15.008-53.344-0.576-106.688-1.152-160.064-1.728-8.16-0.064-14.752-6.56-14.752-14.464l0-14.336c0-7.936 6.592-14.336 14.752-14.368 53.344-0.128 106.688-0.288 160.064-0.448 8.16 0 14.752 6.752 14.752 15.168l0 15.168zM225.312 416.992c0 8.384-6.592 15.264-14.752 15.36-53.344 0.64-106.688 1.248-160.064 1.888-8.16 0.096-14.752-6.24-14.752-14.144 0-5.728 0-8.576 0-14.304 0-7.936 6.592-14.496 14.752-14.72 53.344-1.376 106.688-2.72 160.064-4.064 8.16-0.224 14.752 6.4 14.752 14.816l0 15.168zM225.312 341.12c0 8.384-6.592 15.424-14.752 15.68-53.344 1.824-106.688 3.68-160.064 5.504-8.16 0.256-14.752-5.92-14.752-13.824l0-14.336c0-7.936 6.592-14.624 14.752-15.04 53.344-2.56 106.688-5.152 160.064-7.68 8.16-0.384 14.752 6.08 14.752 14.464l0 15.2zM225.312 265.216c0 8.384-6.592 15.552-14.752 16.032-53.344 3.04-106.688 6.08-160.064 9.12-8.16 0.448-14.752-5.6-14.752-13.472l0-14.304c0-7.936 6.592-14.784 14.752-15.36 53.344-3.776 106.688-7.552 160.064-11.296 8.16-0.576 14.752 5.76 14.752 14.144l0 15.168z" p-id="13434" fill="#098be3"></path></svg>