<?xml version="1.0" standalone="no"?><!DOCTYPE svg PUBLIC "-//W3C//DTD SVG 1.1//EN" "http://www.w3.org/Graphics/SVG/1.1/DTD/svg11.dtd"><svg t="1490930160196" class="icon" style="" viewBox="0 0 1024 1024" version="1.1" xmlns="http://www.w3.org/2000/svg" p-id="10133" xmlns:xlink="http://www.w3.org/1999/xlink" width="24" height="24"><defs><style type="text/css"></style></defs><path d="M200.209408 814.626816l625.34144-0.31232c0 0 38.204416 1.984512 50.264064-41.705472l104.416256-339.74784c0 0 18.052096-63.568896-50.184192-63.568896 0 0-508.240896 0-648.761344 0-19.296256 0-38.204416 27.815936-38.204416 27.815936l-60.923904 383.4368C182.158336 780.546048 178.112512 814.626816 200.209408 814.626816zM134.694912 814.665728c0 0-28.166144-4.318208-28.166144-34.11968L44.205056 252.075008c0 0-1.9456 27.81696-1.9456-9.920512s30.03392-31.78496 30.03392-31.78496l261.123072 0c38.281216 0 32.212992 33.769472 32.212992 33.769472 0 27.815936 36.103168 31.78496 36.103168 31.78496l444.670976-1.984512c32.136192 0 28.166144 33.768448 28.166144 33.768448 0 27.81696-30.18752 29.800448-30.18752 29.800448L265.179136 337.508352c-74.30656 0-64.269312 63.56992-64.269312 63.56992L134.694912 814.665728z" p-id="10134" fill="#098be3"></path></svg>