<?xml version="1.0" encoding="utf-8"?>
<!-- Generator: Adobe Illustrator 14.0.0, SVG Export Plug-In . SVG Version: 6.00 Build 43363)  -->
<!DOCTYPE svg PUBLIC "-//W3C//DTD SVG 1.1//EN" "http://www.w3.org/Graphics/SVG/1.1/DTD/svg11.dtd">
<svg version="1.1" id="图层_1" xmlns="http://www.w3.org/2000/svg" xmlns:xlink="http://www.w3.org/1999/xlink" x="0px" y="0px"
	 width="24px" height="24px" viewBox="0 0 24 24" enable-background="new 0 0 24 24" xml:space="preserve">
<path fill="#098BE3" d="M12,23.199C5.814,23.199,0.8,18.184,0.8,12C0.8,5.814,5.814,0.801,12,0.801c6.186,0,11.2,5.014,11.2,11.199
	C23.199,18.184,18.186,23.199,12,23.199z M20.115,17.48c0.939-1.383,1.531-3.016,1.658-4.781H16.17
	c-0.035,1.303-0.145,2.572-0.354,3.785C17.336,16.701,18.777,17.033,20.115,17.48z M9.232,12.699
	c0.038,1.232,0.15,2.445,0.361,3.609c0.788-0.068,1.589-0.109,2.407-0.109c0.817,0,1.62,0.041,2.409,0.109
	c0.209-1.164,0.32-2.377,0.359-3.609H9.232z M14.768,11.3c-0.039-1.232-0.15-2.444-0.359-3.609C13.619,7.76,12.816,7.801,12,7.801
	c-0.818,0-1.619-0.041-2.407-0.11C9.382,8.855,9.27,10.067,9.232,11.3H14.768z M19.152,18.688c-1.143-0.361-2.35-0.639-3.607-0.822
	c-0.295,1.281-0.676,2.498-1.141,3.625C16.25,21.025,17.889,20.033,19.152,18.688z M11.32,21.766
	c0.226,0.016,0.451,0.033,0.68,0.033c0.229,0,0.455-0.018,0.68-0.033c0.596-1.242,1.078-2.621,1.436-4.086
	c-0.695-0.061-1.402-0.098-2.116-0.098c-0.714,0-1.418,0.037-2.115,0.098C10.242,19.145,10.725,20.523,11.32,21.766z M9.595,21.49
	c-0.466-1.127-0.846-2.344-1.141-3.625c-1.259,0.184-2.465,0.461-3.607,0.822C6.11,20.033,7.748,21.025,9.595,21.49z M8.181,16.484
	c-0.207-1.213-0.317-2.482-0.351-3.785H2.227c0.125,1.766,0.719,3.398,1.656,4.781C5.223,17.033,6.664,16.701,8.181,16.484z
	 M3.883,6.52C2.946,7.902,2.353,9.535,2.227,11.3H7.83c0.034-1.301,0.144-2.572,0.351-3.785C6.664,7.299,5.223,6.966,3.883,6.52z
	 M4.847,5.313c1.142,0.36,2.349,0.637,3.607,0.821c0.294-1.282,0.675-2.5,1.141-3.626C7.748,2.977,6.11,3.966,4.847,5.313z
	 M12.68,2.234C12.454,2.219,12.229,2.201,12,2.201c-0.229,0-0.454,0.018-0.68,0.033c-0.595,1.24-1.078,2.62-1.436,4.086
	C10.581,6.382,11.285,6.417,12,6.417c0.713,0,1.42-0.036,2.116-0.097C13.758,4.854,13.275,3.475,12.68,2.234z M14.404,2.509
	c0.465,1.126,0.846,2.344,1.141,3.626c1.258-0.185,2.465-0.461,3.607-0.821C17.889,3.966,16.25,2.977,14.404,2.509z M15.816,7.515
	c0.209,1.213,0.318,2.484,0.354,3.785h5.604c-0.127-1.765-0.719-3.397-1.658-4.78C18.777,6.966,17.336,7.299,15.816,7.515z"/>
</svg>
