<?xml version="1.0" standalone="no"?><!DOCTYPE svg PUBLIC "-//W3C//DTD SVG 1.1//EN" "http://www.w3.org/Graphics/SVG/1.1/DTD/svg11.dtd"><svg t="1491277016926" class="icon" style="" viewBox="0 0 1024 1024" version="1.1" xmlns="http://www.w3.org/2000/svg" p-id="7584" xmlns:xlink="http://www.w3.org/1999/xlink" width="24" height="24"><defs><style type="text/css"></style></defs><path d="M633.253598 228.440829c0 17.685801-4.652973 34.163077-12.158924 48.943712 55.832609 65.806775 106.833167 148.681274 140.738371 251.786537 44.599777 3.238764 82.284051 31.386848 98.530061 70.999031 29.972639-3.984754 61.102636-10.153244 93.054349-17.891486 3.624551-22.954805 6.066159-46.295396 6.066159-70.279646 0-140.558269-64.932872-265.847787-166.31591-347.874989-14.292518 3.084245-78.530564 17.968234-161.097048 52.490491C632.482025 220.549092 633.253598 224.379327 633.253598 228.440829z" p-id="7585" fill="#098be3"></path><path d="M524.466939 119.706359c30.023804 0 57.272401 12.235672 76.962859 31.978319 41.617863-17.942651 78.659501-31.052227 108.503203-40.563858-59.739593-29.561269-126.780475-46.604434-197.933001-46.604434-46.449915 0-91.229794 7.094582-133.334751 20.230764 24.805966 12.852726 54.727439 30.075992 87.116103 52.439326C482.746746 126.235053 502.82299 119.706359 524.466939 119.706359z" p-id="7586" fill="#098be3"></path><path d="M166.130691 444.059632c0-14.600533 3.418866-28.353768 9.151427-40.820708-28.738531-32.825616-50.485835-62.413492-66.038042-85.291548-28.379351 58.763358-44.727691 124.415614-44.727691 194.051601 0 71.796186 17.300015 139.376351 47.349401 199.50173 12.724813-79.353302 38.22458-149.375076 72.566736-210.734562C173.019589 484.72582 166.130691 465.215464 166.130691 444.059632z" p-id="7587" fill="#098be3"></path><path d="M264.377296 345.813027c11.670807 0 22.723537 2.390443 33.109072 6.14393 38.172391-38.32691 79.276554-71.51273 120.918977-100.123348-1.671059-7.557116-2.672876-15.346523-2.672876-23.391756 0-12.158924 2.468215-23.64963 6.169513-34.574447-67.837015-45.447075-122.462123-65.523319-133.283586-69.225641-53.879118 31.155581-100.483552 73.158207-137.164986 123.104759 10.153244 17.711384 34.882462 57.837266 75.497485 105.547895C238.517325 348.511485 251.113201 345.813027 264.377296 345.813027z" p-id="7588" fill="#098be3"></path><path d="M633.304763 668.753113C502.334873 646.131907 395.527288 591.6869 312.061318 529.427928c-14.189164 7.942903-30.281677 12.878309-47.684022 12.878309-6.451946 0-12.724813-0.719384-18.816554-1.902326-39.946804 74.237795-66.191538 161.919786-68.839855 265.745457l-1.439792-0.025583c46.218648 52.850695 104.519472 94.725408 170.814364 121.228015C420.87356 814.092269 544.619932 723.506135 633.304763 668.753113z" p-id="7589" fill="#098be3"></path><path d="M729.135342 756.768703c-20.178575-4.343935-38.172391-14.163581-52.927443-27.556613-78.06803 47.889707-187.111538 125.880989-256.337179 220.683145 29.741371 6.220678 60.536748 9.588379 92.12928 9.588379 77.117378 0 149.684114-19.510356 213.022675-53.879118C730.21493 852.753801 731.423455 803.14187 729.135342 756.768703z" p-id="7590" fill="#098be3"></path><path d="M932.929842 662.609183c-23.212678 4.627391-46.012963 8.43102-68.273966 11.207249-8.894577 33.031301-31.874965 60.150962-62.33572 74.469062 1.851161 33.031301 1.465374 67.991534-0.076748 103.928001C861.031325 802.011116 906.376069 736.846978 932.929842 662.609183z" p-id="7591" fill="#098be3"></path><path d="M569.837266 326.996472c-13.855566 6.40078-29.124318 10.231015-45.370327 10.231015-26.167986 0-49.919946-9.69071-68.685335-25.166169-36.116569 25.01165-71.564919 53.904701-104.570637 87.013773 7.043417 13.546527 11.412934 28.687366 11.412934 44.98454 0 10.899234-2.210341 21.206998-5.501294 31.001061 75.2918 55.497988 171.533748 104.08252 290.165636 123.387191 9.151427-21.310352 24.600281-39.149649 43.87937-51.591005C661.504012 457.066877 617.830327 384.680243 569.837266 326.996472z" p-id="7592" fill="#098be3"></path></svg>