<?xml version="1.0" standalone="no"?><!DOCTYPE svg PUBLIC "-//W3C//DTD SVG 1.1//EN" "http://www.w3.org/Graphics/SVG/1.1/DTD/svg11.dtd"><svg t="1491277242400" class="icon" style="" viewBox="0 0 1031 1024" version="1.1" xmlns="http://www.w3.org/2000/svg" p-id="10481" xmlns:xlink="http://www.w3.org/1999/xlink" width="24.1640625" height="24"><defs><style type="text/css"></style></defs><path d="M1024 198.4c-6.4-64-115.2-108.8-128-115.2l-179.2-76.8c-6.4 0-19.2 0-25.6 6.4s0 19.2 6.4 25.6c32 32 44.8 89.6 44.8 89.6 0 6.4 0 742.4 0 761.6 0 51.2-38.4 83.2-38.4 89.6-6.4 6.4-6.4 19.2-6.4 25.6 6.4 6.4 12.8 12.8 19.2 12.8 0 0 6.4 0 6.4 0 6.4 0 160-64 172.8-64 128-44.8 134.4-121.6 134.4-128l0-627.2zM531.2 0l-403.2 0c-70.4 0-128 57.6-128 134.4l0 755.2c0 76.8 57.6 134.4 128 134.4l396.8 0c70.4 0 128-57.6 128-134.4l0-755.2c6.4-76.8-51.2-134.4-121.6-134.4l0 0zM307.2 857.6c-44.8 0-76.8-38.4-76.8-83.2s38.4-83.2 76.8-83.2c44.8 0 76.8 38.4 76.8 83.2 6.4 44.8-32 83.2-76.8 83.2l0 0zM556.8 512c0 32-25.6 64-57.6 64l-339.2 0c-32-6.4-57.6-32-57.6-64l0-134.4 454.4 0 0 134.4zM556.8 307.2l-454.4 0 0-128c0-32 25.6-64 57.6-64l345.6 0c32 0 57.6 25.6 57.6 64l0 128z" p-id="10482" fill="#098be3"></path></svg>