<?xml version="1.0" standalone="no"?><!DOCTYPE svg PUBLIC "-//W3C//DTD SVG 1.1//EN" "http://www.w3.org/Graphics/SVG/1.1/DTD/svg11.dtd"><svg t="1490930613230" class="icon" style="" viewBox="0 0 1024 1024" version="1.1" xmlns="http://www.w3.org/2000/svg" p-id="1376" xmlns:xlink="http://www.w3.org/1999/xlink" width="24" height="24"><defs><style type="text/css"></style></defs><path d="M232.367543 403.6096 158.165577 403.6096l-30.471314 185.049234 69.342354 0c0 0 84.361509 2.610469 88.33536-119.888457C289.345097 398.401829 232.367543 403.6096 232.367543 403.6096L232.367543 403.6096zM865.741531 403.6096l-74.200503 0-30.472046 185.049234 69.341623 0c0 0 84.36224 2.610469 88.336091-119.888457C922.719817 398.401829 865.741531 403.6096 865.741531 403.6096L865.741531 403.6096zM193.498697 657.46944l-75.078949-0.6912-21.204114 116.411977L16.833829 773.190217l72.434834-437.86752c0 0 102.90688 1.563794 170.485029 0 67.575223-1.565257 134.03136 54.78912 102.913463 182.443886C325.561783 669.980526 193.498697 657.46944 193.498697 657.46944L193.498697 657.46944zM554.796617 657.46944c0 0 19.296549-101.753417 27.747474-172.403566 3.47648-29.083063 18.632411-78.328686-21.531794-78.442057-33.639863-0.101669-83.946789-0.411063-83.946789-0.411063l-42.405303 251.263269L355.155383 657.476023l74.208549-439.962331 81.408731 0-20.458057 117.774629 83.919726 0c0 0 111.304411-10.389943 98.054583 98.035566-13.256411 108.424046-37.988937 224.152137-37.988937 224.152137L554.796617 657.476023 554.796617 657.46944zM996.041143 517.765851c-37.103909 152.213943-169.161874 139.702857-169.161874 139.702857l-75.086263-0.6912-21.203383 116.411977L650.207086 773.189486l72.435566-437.86752c0 0 102.907611 1.563794 170.484297 0C960.702903 333.756709 1027.157577 390.111086 996.041143 517.765851L996.041143 517.765851zM996.041143 517.765851" p-id="1377" fill="#098be3"></path></svg>