<?xml version="1.0" standalone="no"?><!DOCTYPE svg PUBLIC "-//W3C//DTD SVG 1.1//EN" "http://www.w3.org/Graphics/SVG/1.1/DTD/svg11.dtd"><svg t="1490930724231" class="icon" style="" viewBox="0 0 1024 1024" version="1.1" xmlns="http://www.w3.org/2000/svg" p-id="2145" xmlns:xlink="http://www.w3.org/1999/xlink" width="24" height="24"><defs><style type="text/css"></style></defs><path d="M500.5 450.6c11.7 36.9 22.7 71.4 34.3 107.7-23.2 7.5-45.4 7.7-67.9-0.2C478.2 522 488.9 487.6 500.5 450.6zM1024 512c0 282.8-229.2 512-512 512S0 794.8 0 512 229.2 0 512 0 1024 229.2 1024 512zM916.5 495.7c5-21.8 4.6-44.1 0.6-66.2-3.7-20.4-13.1-37.7-28.4-51.7-25.7-23.4-57.5-33.1-90.9-34.7-45.9-2.2-91.9-1.3-137.8-1.6-2.6 0-5.2 0.4-8 0.7l0 253.9c-1.8 0.1-2.6 0.3-3.4 0.4-2.7-8.8-5-17.7-8.3-26.3-9.1-23.7-18.8-47.2-27.8-70.9-11-29.3-21.6-58.7-32.3-88.1-7.4-20.3-14.3-40.9-22.1-61.1-1.3-3.5-5.5-8.2-8.5-8.2-29.2-0.6-58.5-0.4-87.7-0.2-2.1 0-5.3 1.8-6 3.6-5.7 14.1-10.9 28.4-16.1 42.7-6.1 16.8-11.8 33.8-18.1 50.5-11.5 30.6-23.4 61.1-35.2 91.6-3.2 8.4-6.7 16.7-10.7 26.6-1.8-2.9-2.9-4-3.2-5.2-3.9-18.6-16.7-31.1-30.3-42.4-24.5-20.2-55.3-27-84.3-37.9-15.8-5.9-31.7-12.5-45.8-21.6-14.7-9.5-10.2-25.6 3.9-31.5 21.2-8.9 43.1-5.9 64.1-2.2 18.2 3.2 35.4 11.4 53.6 17.6 10.8-18.5 22.2-37.7 33.2-57.1 6.4-11.2 5.6-10.5-5.9-15.3-11.5-4.8-9.7-4.3-18.8-7.4-26.3-8.8-43.6-13-66.4-16-24.1-3.1-48.2-2.3-72.6 2.6-24 4.8-44.3 15.6-62.8 30-16.2 12.6-25.9 29.9-30.9 50.5-6.2 25.6-3.5 49.6 9.5 71.6 16.4 27.7 44.3 41.1 73 52.1 17.2 6.6 35.2 11.2 52.7 17.2 7.1 2.4 13.9 5.8 20.4 9.6 9.7 5.6 12.2 16.6 8.9 26.7-5 14.9-18.2 16.2-29.8 18.1-19.5 3.2-39.1-0.3-58.2-5-6.4-1.6-12.3-5.2-18.4-7.9-9-4-17.9-8-27.2-12.1-10.1 20.6-19.1 41.2-30 60.6-5 8.9-0.9 10.4 5.4 12.9 15 5.7 29.6 12.9 45 16.9 20.4 5.4 41.2 10.2 62.2 12 16.6 1.4 33.8-0.8 50.3-3.8 12.8-2.4 25-8 37.1-13.1 8.6-3.7 16.5-9 25.4-13.9-2.8 8.3-5.2 15.6-8.1 24.2 33.9 0 65.5 0.2 97-0.4 2.9-0.1 7-4.8 8.3-8.3 4.9-13.2 8.9-26.7 13.6-41 38.8 12.2 77.5 11.8 116.2 0.6 4.5 14 9.2 27.1 12.6 40.4 1.7 6.5 4.5 8.8 10.9 8.8 50.4-0.1 100.9-0.2 151.3 0 6.8 0 8.6-2.1 8.5-8.7-0.3-28.9-0.2-57.9-0.2-86.8 0-3.2 0.3-6.3 0.5-10.2 12.4 0 24-0.3 35.6 0.1 34.3 1.2 66-7 94.4-26.5C897.4 540.5 910.9 520.3 916.5 495.7zM798.5 426.4c-17.5-8.2-36.5-8.5-55.4-8.6-5.6 0-5.7 3.9-5.7 8 0 17.9 0 35.7 0 53.6 0 8.5 0 17.1 0 27.1 16.3-0.8 31.6 0 46.4-2.7 10.5-1.9 21.4-5.8 27.7-16.7 6.5-11.5 8.3-22.9 5.7-36C814.6 439.2 808.7 431.2 798.5 426.4z" p-id="2146" fill="#098be3"></path></svg>