<?xml version="1.0" standalone="no"?><!DOCTYPE svg PUBLIC "-//W3C//DTD SVG 1.1//EN" "http://www.w3.org/Graphics/SVG/1.1/DTD/svg11.dtd"><svg t="1491272727887" class="icon" style="" viewBox="0 0 1024 1024" version="1.1" xmlns="http://www.w3.org/2000/svg" p-id="6764" xmlns:xlink="http://www.w3.org/1999/xlink" width="24" height="24"><defs><style type="text/css"></style></defs><path d="M73.142857 804.571429h585.142857v-73.142858H73.142857v73.142858z m0-292.571429h585.142857V438.857143H73.142857v73.142857z m896 256q0-22.857143-16-38.857143t-38.857143-16-38.857143 16-16 38.857143 16 38.857143 38.857143 16 38.857143-16 16-38.857143zM73.142857 219.428571h585.142857V146.285714H73.142857v73.142857z m896 256q0-22.857143-16-38.857142t-38.857143-16-38.857143 16-16 38.857142 16 38.857143 38.857143 16 38.857143-16 16-38.857143z m0-292.571428q0-22.857143-16-38.857143t-38.857143-16-38.857143 16-16 38.857143 16 38.857143 38.857143 16 38.857143-16 16-38.857143z m54.857143 475.428571v219.428572H0v-219.428572h1024z m0-292.571428v219.428571H0V365.714286h1024z m0-292.571429v219.428572H0V73.142857h1024z" p-id="6765" fill="#098be3"></path></svg>